<svg xmlns="http://www.w3.org/2000/svg" width="474.249" height="172.099" viewBox="0 0 474.249 172.099">
  <g id="BidDayTool-Icon" transform="translate(-189.567 -1472)">
    <g id="angular-icon" transform="translate(188.718 1486.659)">
      <path id="Path_1" data-name="Path 1" d="M36.614.341.849,12.928,6.5,59.786,36.652,76.357l30.307-16.8L72.608,12.7Z" transform="translate(0)" fill="#b3b3b3"/>
      <path id="Path_2" data-name="Path 2" d="M159.82,25.552,127.31,14.466V82.538l27.245-15.079,5.265-41.907Z" transform="translate(-90.779 -10.14)" fill="#a6120d"/>
      <path id="Path_3" data-name="Path 3" d="M15.073,25.749l4.843,41.907L46.741,82.535V14.462L15.073,25.749Z" transform="translate(-10.211 -10.137)" fill="#dd1b16"/>
      <path id="Path_4" data-name="Path 4" d="M80,56.993l-8.949,4.185H61.62l-4.434,11.09-8.247.152L71.052,23.227,80,56.993Zm-.865-2.107L71.111,39,64.529,54.613h6.523l8.084.274Z" transform="translate(-34.521 -16.429)" fill="#f2f2f2"/>
      <path id="Path_5" data-name="Path 5" d="M127.309,23.226,127.368,39l7.469,15.625h-7.511l-.017,6.543,10.386.01,4.854,11.244,7.891.146L127.309,23.226Z" transform="translate(-90.779 -16.428)" fill="#b3b3b3"/>
    </g>
    <g id="apollo-graphql-1" transform="translate(274.557 1608.213)">
      <g id="Group_1" data-name="Group 1" transform="translate(-47.441 -30.937)">
        <path id="Path_6" data-name="Path 6" d="M92.152,71.252H86.444L78.2,92.65h5.167l1.339-3.641h7.8l-1.409-3.993H85.951l3.335-9.207L95.229,92.65H100.4Zm86.741,21.4v-21.4h4.58V88.633h9.043V92.65Zm26.424,0v-21.4h4.6V88.633h9.043V92.65ZM153.478,75.081a6.882,6.882,0,1,1-6.882,6.882,6.877,6.877,0,0,1,6.882-6.882m0-4.181a11.063,11.063,0,1,0,11.063,11.063A11.067,11.067,0,0,0,153.478,70.9Zm86.576,4.181a6.882,6.882,0,1,1-6.882,6.882,6.877,6.877,0,0,1,6.882-6.882m0-4.181a11.063,11.063,0,1,0,11.063,11.063A11.067,11.067,0,0,0,240.055,70.9Zm-116.335.352h-9.982v21.4h4.557V85.275h5.426a7.012,7.012,0,0,0,0-14.022Zm0,9.841h-5.426V75.433h5.426a2.833,2.833,0,0,1,0,5.661Z" transform="translate(-61.359 -55.445)" fill="#333"/>
        <path id="Path_7" data-name="Path 7" d="M54.955,48.787a1.158,1.158,0,0,0-.963.493s-1.033,1.174-1.574,1.738a25.588,25.588,0,0,1-8.1,5.473,25.2,25.2,0,0,1-9.935,2,25.616,25.616,0,0,1-9.935-2,25.328,25.328,0,0,1-8.1-5.473,25.588,25.588,0,0,1-5.473-8.1,25.2,25.2,0,0,1-2-9.935,25.616,25.616,0,0,1,2-9.935,24.886,24.886,0,0,1,5.449-8.1,25.588,25.588,0,0,1,8.1-5.473,25.2,25.2,0,0,1,9.935-2A25.354,25.354,0,0,1,50.4,13.133a3.03,3.03,0,0,0-.164.94,2.889,2.889,0,1,0,2.889-2.889,2.451,2.451,0,0,0-1.1.235A27.871,27.871,0,1,0,55.8,50.807a1.2,1.2,0,0,0,.352-.822,1.235,1.235,0,0,0-1.2-1.2Z" transform="translate(-6.5 -5.1)" fill="#333"/>
      </g>
      <path id="Path_8" data-name="Path 8" d="M164.443,35.886H-64V-42H164.443Z" fill="none"/>
    </g>
    <g id="css-5" transform="translate(353.672 1472)">
      <path id="Path_9" data-name="Path 9" d="M414,3.36h-5.336l5.55,6.026v2.866H402.784V8.9h5.55l-5.55-6.026V0h11.224Zm-13.49,0h-5.343l5.557,6.026v2.866H389.29V8.9h5.55L389.29,2.87V0h11.224Zm-13.36.138H381.4v5.26h5.757v3.5H377.3V0h9.854Z" transform="translate(-363.595)" fill="#131313"/>
      <path id="Path_10" data-name="Path 10" d="M5.855,557.061,0,491.4H64.328l-5.863,65.65-26.341,7.3Z" transform="translate(0 -473.551)" fill="#1572b6"/>
      <path id="Path_11" data-name="Path 11" d="M885.5,701.2l21.285-5.9,5.005-56.1H885.5Z" transform="translate(-853.336 -615.982)" fill="#33a9dc"/>
      <path id="Path_12" data-name="Path 12" d="M885.5,861.794h10.657l.734-8.245H885.5V845.5h20.2l-.193,2.161-1.98,22.193H885.5Z" transform="translate(-853.336 -814.789)" fill="#fff"/>
      <path id="Path_13" data-name="Path 13" d="M418.257,1635.245h-.036l-8.968-2.423-.574-6.422H400.6l1.13,12.644,16.5,4.591h.047v-8.39Z" transform="translate(-386.049 -1567.324)" fill="#ebebeb"/>
      <path id="Path_14" data-name="Path 14" d="M896.052,1506.2l-.97,10.777L886.1,1519.4v8.391l16.509-4.577.12-1.362,1.4-15.655h-8.078Z" transform="translate(-853.914 -1451.49)" fill="#fff"/>
      <path id="Path_15" data-name="Path 15" d="M351.074,845.5v8.053H331.626l-.167-1.809-.367-4.083L330.9,845.5Zm-.029,16.294v8.053h-8.866l-.156-1.809-.367-4.083-.193-2.161h9.578Z" transform="translate(-318.881 -814.789)" fill="#ebebeb"/>
    </g>
    <g id="html-5" transform="translate(275.555 1474)">
      <path id="Path_16" data-name="Path 16" d="M63.171,70.766l-5.714,64.017L31.77,141.9,6.154,134.793.445,70.766H63.171Z" transform="translate(0 -53.366)" fill="#e44d26"/>
      <path id="Path_17" data-name="Path 17" d="M128,152.517l20.756-5.754,4.883-54.705H128Z" transform="translate(-96.192 -69.422)" fill="#f16529"/>
      <path id="Path_18" data-name="Path 18" d="M56.5,131.848H67.608V124H47.917L48.1,126.1l1.93,21.64H67.608v-7.853H57.217Zm1.77,19.82H50.386l1.1,12.33,16.086,4.465.036-.01v-8.17l-.034.009-8.745-2.361Z" transform="translate(-35.8 -93.507)" fill="#ebebeb"/>
      <path id="Path_19" data-name="Path 19" d="M24.18,0h3.991V3.943h3.651V0h3.991V11.939H31.821v-4H28.171v4H24.18V0ZM41.06,3.959H37.547V0H48.566V3.959H45.051v7.98H41.06V3.959h0ZM50.314,0h4.161l2.56,4.2L59.592,0h4.163V11.939H59.78V6.022l-2.745,4.245h-.069L54.219,6.022v5.918h-3.9ZM65.741,0h3.992V7.993h5.612v3.946h-9.6V0Z" transform="translate(-17.899)"/>
      <path id="Path_20" data-name="Path 20" d="M127.889,147.741h9.67l-.912,10.184-8.758,2.364v8.17l16.1-4.461.118-1.327L145.951,142l.192-2.109H127.889Zm0-15.913v.019h18.968l.157-1.765.358-3.981L147.56,124H127.889v7.834Z" transform="translate(-96.108 -93.507)" fill="#fff"/>
    </g>
    <g id="javascript-4" transform="translate(432.932 1472)">
      <path id="Path_21" data-name="Path 21" d="M64.646,489.9H0l6.061,65.72,26.259,7.447,26.259-7.447Z" transform="translate(0 -472.068)" fill="#e6a329"/>
      <path id="Path_22" data-name="Path 22" d="M887.9,637v62.244l21.276-6.028L914.352,637Z" transform="translate(-855.581 -613.813)" fill="#f1bf22"/>
      <path id="Path_23" data-name="Path 23" d="M426.591,858.5H393.879L391.6,883.106l.047-.153h27.791l-.906,10.41-8.867,2.552-9-2.592-.539-6.3H391.96l1.165,12.591,16.54,4.7,16.547-4.7,2.279-24.712H399l.379-8.234h20.464l.306,4.717h8.241Z" transform="translate(-377.346 -827.251)" fill="#fff"/>
      <path id="Path_24" data-name="Path 24" d="M409.673,858.5H393.879L391.6,883.106l.047-.153h18.025v-8.026h-9.526l.379-8.234h9.147Zm-9.526,28.523H391.96l1.165,12.583,16.54,4.688v-8.372l-9-2.6Z" transform="translate(-377.346 -827.251)" fill="#ebebeb"/>
      <path id="Path_25" data-name="Path 25" d="M562.855,8.139H557.1V12.27h9.872V0h-4.117ZM581.186.066H571.154v4.3c1.34,1.34,2.038,1.984,4.011,3.924h-4.011V12.2h10.032V8.292l-4.011-3.924h4.011Z" transform="translate(-536.822)" fill="#231f20"/>
    </g>
    <path id="graphql" d="M40.153,8.675l15.565,8.987a6.75,6.75,0,1,1,6.48,11.2V46.843a6.749,6.749,0,1,1-6.637,11.052L40.091,66.826a6.746,6.746,0,1,1-12.879.218L11.651,58.059A6.75,6.75,0,1,1,5.173,46.842V28.861a6.751,6.751,0,1,1,6.472-11.207l15.57-8.99a6.746,6.746,0,1,1,12.938.01Zm-1.622,2.769,15.6,9.008a6.739,6.739,0,0,0,4.855,8.393v18c-.088.021-.175.045-.261.069L38.35,11.624q.092-.088.181-.18Zm-9.507.184L8.647,46.922q-.132-.038-.266-.071V28.846a6.74,6.74,0,0,0,4.853-8.4l15.6-9.006q.094.1.193.191Zm6.546,1.6L55.944,48.513a6.772,6.772,0,0,0-1.9,3.294H13.327a6.717,6.717,0,0,0-1.9-3.285L31.806,13.229a6.816,6.816,0,0,0,3.764,0Zm3.1,51.181,15.5-8.95q-.07-.219-.124-.443H13.318q-.032.131-.07.261L28.825,64.27a6.755,6.755,0,0,1,9.85.138Z" transform="translate(512.604 1487)" fill="#e535ab" fill-rule="evenodd"/>
    <path id="express-109" d="M.87,30.183V15.309H19.441v-.87H.87V.87H20.615V0H0V31.053H20.789v-.87H.87ZM37.533,8.7l-7.7,10.134L22.311,8.7H21.18l8.133,10.786L20.4,31.052h1.044l8.394-10.916,8.437,10.916h1.087L30.4,19.484,38.576,8.7H37.533Zm4.436,30.009V24.79h.087a8.932,8.932,0,0,0,3.088,4.893,9.09,9.09,0,0,0,5.871,1.848,8.5,8.5,0,0,0,7.067-3.479,11.843,11.843,0,0,0,1.827-3.74,15.71,15.71,0,0,0,.631-4.479,15.836,15.836,0,0,0-.653-4.654A11.14,11.14,0,0,0,58,11.482a8.7,8.7,0,0,0-3-2.435,8.866,8.866,0,0,0-3.979-.87,9.652,9.652,0,0,0-3.153.5,8.44,8.44,0,0,0-2.588,1.413,9.573,9.573,0,0,0-1.957,2.153,9.914,9.914,0,0,0-1.261,2.718h-.087V8.7H41.1V38.707h.87Zm9.046-8A8.336,8.336,0,0,1,44.448,27.9q-2.479-2.805-2.479-8.068a13.829,13.829,0,0,1,.609-4.132,10.7,10.7,0,0,1,1.761-3.436,8.458,8.458,0,0,1,2.849-2.349,8.264,8.264,0,0,1,3.827-.87,7.968,7.968,0,0,1,3.806.87,7.714,7.714,0,0,1,2.7,2.37,11.037,11.037,0,0,1,1.609,3.436,15.138,15.138,0,0,1,.543,4.11,15.49,15.49,0,0,1-.5,3.893,11.127,11.127,0,0,1-1.544,3.48,8.4,8.4,0,0,1-2.675,2.522,7.516,7.516,0,0,1-3.936.978Zm14.309.348V18.4a12.334,12.334,0,0,1,.522-3.566,8.734,8.734,0,0,1,1.609-3.066,7.541,7.541,0,0,1,2.762-2.088A8.382,8.382,0,0,1,74.2,9.046v-.87a10.776,10.776,0,0,0-3.5.435,8.5,8.5,0,0,0-2.588,1.3,6.665,6.665,0,0,0-1.74,1.935,8.653,8.653,0,0,0-.957,2.37h-.087V8.7h-.87V31.053h.87Zm9.959-11h18.7a15.479,15.479,0,0,0-.457-4.436,11.033,11.033,0,0,0-1.74-3.784A8.857,8.857,0,0,0,88.7,9.177a9.506,9.506,0,0,0-4.5-1,9.154,9.154,0,0,0-6.785,3.066,11.586,11.586,0,0,0-2.174,3.675,13.889,13.889,0,0,0-.826,4.958,18.183,18.183,0,0,0,.565,4.632,10.851,10.851,0,0,0,1.74,3.74A7.851,7.851,0,0,0,79.741,30.7a10,10,0,0,0,4.458.826,9.781,9.781,0,0,0,6.437-2.153,8.91,8.91,0,0,0,3.088-6.067h-.87a8.362,8.362,0,0,1-2.892,5.545,9.11,9.11,0,0,1-5.85,1.848,8.98,8.98,0,0,1-4.045-.826,7.328,7.328,0,0,1-2.7-2.262,9.864,9.864,0,0,1-1.544-3.371,18.131,18.131,0,0,1-.544-4.2Zm17.831-.87H75.284a13.445,13.445,0,0,1,.869-4.219,10.458,10.458,0,0,1,1.936-3.2,8.089,8.089,0,0,1,2.783-2.022,8.41,8.41,0,0,1,3.414-.7,8.643,8.643,0,0,1,3.827.8,7.906,7.906,0,0,1,2.762,2.2,9.687,9.687,0,0,1,1.674,3.24,13.235,13.235,0,0,1,.565,3.893Zm18.919-3.871h.87q0-3.74-2.174-5.437a9.378,9.378,0,0,0-5.915-1.7,10.375,10.375,0,0,0-3.523.522,7.043,7.043,0,0,0-2.349,1.348,4.852,4.852,0,0,0-1.3,1.827,5.248,5.248,0,0,0-.392,1.914A5.633,5.633,0,0,0,97.9,16.7a4.293,4.293,0,0,0,2.044,1.7,15.743,15.743,0,0,0,2.175.783q1.218.348,2.827.739,1.435.348,2.827.7a10.212,10.212,0,0,1,2.457.935,5.312,5.312,0,0,1,1.74,1.5,3.931,3.931,0,0,1,.674,2.392,4.255,4.255,0,0,1-.674,2.435,5.433,5.433,0,0,1-1.718,1.631,7.651,7.651,0,0,1-2.327.913,11.606,11.606,0,0,1-2.5.283,9.232,9.232,0,0,1-6.067-1.761q-2.109-1.762-2.109-5.545h-.87q0,4.219,2.283,6.176t6.763,1.957a13.21,13.21,0,0,0,2.892-.326,8.037,8.037,0,0,0,2.609-1.066,5.9,5.9,0,0,0,1.87-1.913,5.407,5.407,0,0,0,.718-2.871,4.831,4.831,0,0,0-.631-2.61,5.291,5.291,0,0,0-1.653-1.653,8.766,8.766,0,0,0-2.3-1.022q-1.29-.372-2.588-.718-1.6-.419-3.2-.826A19.4,19.4,0,0,1,100.6,17.7a4.316,4.316,0,0,1-1.805-1.37,4.153,4.153,0,0,1-.674-2.544A5.994,5.994,0,0,1,98.29,12.7a3.9,3.9,0,0,1,.826-1.588,5.564,5.564,0,0,1,2-1.435,8.884,8.884,0,0,1,3.7-.631,11.571,11.571,0,0,1,2.936.348,6.1,6.1,0,0,1,2.283,1.109,5.046,5.046,0,0,1,1.479,1.935,7.055,7.055,0,0,1,.522,2.871Zm20.136,0h.87q0-3.74-2.174-5.437a9.377,9.377,0,0,0-5.915-1.7,10.373,10.373,0,0,0-3.523.522,7.038,7.038,0,0,0-2.349,1.348,4.85,4.85,0,0,0-1.3,1.827,5.247,5.247,0,0,0-.391,1.914,5.633,5.633,0,0,0,.653,2.914,4.292,4.292,0,0,0,2.044,1.7,15.752,15.752,0,0,0,2.174.783q1.218.348,2.827.739,1.435.348,2.827.7a10.214,10.214,0,0,1,2.457.935,5.31,5.31,0,0,1,1.74,1.5,3.929,3.929,0,0,1,.674,2.392,4.255,4.255,0,0,1-.674,2.435,5.433,5.433,0,0,1-1.718,1.631,7.652,7.652,0,0,1-2.327.913,11.6,11.6,0,0,1-2.5.283,9.231,9.231,0,0,1-6.067-1.761q-2.11-1.762-2.109-5.545h-.87q0,4.219,2.283,6.176t6.763,1.957a13.206,13.206,0,0,0,2.892-.326,8.041,8.041,0,0,0,2.61-1.066,5.9,5.9,0,0,0,1.87-1.913,5.407,5.407,0,0,0,.718-2.871,4.829,4.829,0,0,0-.631-2.61,5.287,5.287,0,0,0-1.653-1.653,8.769,8.769,0,0,0-2.3-1.022q-1.29-.372-2.588-.718-1.6-.419-3.2-.826a19.4,19.4,0,0,1-2.544-.826,4.314,4.314,0,0,1-1.8-1.37,4.153,4.153,0,0,1-.674-2.544,5.978,5.978,0,0,1,.174-1.087,3.9,3.9,0,0,1,.826-1.588,5.566,5.566,0,0,1,2-1.435,8.885,8.885,0,0,1,3.7-.631,11.571,11.571,0,0,1,2.936.348A6.105,6.105,0,0,1,130.17,10.5a5.046,5.046,0,0,1,1.479,1.935,7.054,7.054,0,0,1,.522,2.871Z" transform="translate(479 1586)" fill="#222"/>
    <g id="nodejs-icon" transform="translate(594.397 1486.416)">
      <path id="Path_26" data-name="Path 26" d="M31.906,1.394a6.359,6.359,0,0,1,6.208,0Q52.292,9.4,66.47,17.41a5.837,5.837,0,0,1,2.948,5.027V54.569a5.9,5.9,0,0,1-3.168,5.137Q52.119,67.672,38,75.646a6.179,6.179,0,0,1-6.277-.174q-4.236-2.456-8.478-4.9a4.992,4.992,0,0,1-1.635-1.178c.36-.486,1-.546,1.528-.758a19.787,19.787,0,0,0,3.345-1.561.781.781,0,0,1,.871.052c2.415,1.385,4.809,2.81,7.232,4.181.517.3,1.04-.1,1.482-.344q13.867-7.837,27.743-15.656a.917.917,0,0,0,.5-.9q.01-15.9,0-31.8a.994.994,0,0,0-.592-.991q-14.082-7.93-28.157-15.87a.978.978,0,0,0-1.106,0Q20.379,13.674,6.3,21.616a.982.982,0,0,0-.6.987q0,15.9,0,31.8a.9.9,0,0,0,.51.892q3.757,2.131,7.519,4.246a5.81,5.81,0,0,0,4.7.629,3.566,3.566,0,0,0,2.309-3.351c.013-10.538-.006-21.077.01-31.613a.794.794,0,0,1,.864-.81c1.2-.008,2.409-.016,3.612,0a.833.833,0,0,1,.786.964c0,10.6.013,21.209-.008,31.813,0,2.826-1.158,5.9-3.772,7.284a11.617,11.617,0,0,1-10.383-.285c-2.754-1.375-5.383-3-8.088-4.47A5.887,5.887,0,0,1,.6,54.569V22.438a5.848,5.848,0,0,1,3.049-5.091Q17.781,9.373,31.906,1.394Z" transform="translate(0 0)" fill="#8cc84b"/>
      <path id="Path_27" data-name="Path 27" d="M116.163,85.707c4.108-.264,8.506-.157,12.2,1.867a9.228,9.228,0,0,1,4.5,7.985.864.864,0,0,1-.938.636c-1.192,0-2.384.016-3.576-.008a.921.921,0,0,1-.863-.894,5.444,5.444,0,0,0-2.6-3.762c-2.2-1.1-4.747-1.045-7.144-1.022a9.7,9.7,0,0,0-5.114,1.273,3.24,3.24,0,0,0-1.078,3.62c.383.91,1.433,1.2,2.293,1.474,4.951,1.295,10.2,1.166,15.053,2.87a7.087,7.087,0,0,1,4.665,4.15,8.866,8.866,0,0,1-1.5,8.458,11.853,11.853,0,0,1-6.363,3.429,30.571,30.571,0,0,1-9.6.408c-3-.342-6.13-1.132-8.449-3.178a8.866,8.866,0,0,1-2.855-6.994.8.8,0,0,1,.877-.706c1.2-.01,2.4-.013,3.6,0a.841.841,0,0,1,.859.832,5.456,5.456,0,0,0,2.03,3.83c2.439,1.574,5.5,1.466,8.293,1.51,2.314-.1,4.912-.134,6.8-1.663a3.756,3.756,0,0,0,1.022-3.588c-.292-1.06-1.4-1.554-2.353-1.877-4.887-1.546-10.192-.985-15.032-2.733a7.316,7.316,0,0,1-4.62-4.026,8.246,8.246,0,0,1,1.647-8.579c2.162-2.177,5.284-3.015,8.251-3.315Z" transform="translate(-76.04 -62.056)" fill="#8cc84b"/>
    </g>
  </g>
</svg>
