<svg xmlns="http://www.w3.org/2000/svg" width="66.743" height="75.063" viewBox="0 0 66.743 75.063">
  <g id="CSharp-Icon" transform="translate(-204.925 -157.745)">
    <path id="Path_97" data-name="Path 97" d="M271.668,179.79a6.509,6.509,0,0,0-.822-3.331,6.286,6.286,0,0,0-2.406-2.344q-13.324-7.68-26.669-15.36a6.564,6.564,0,0,0-7.094.062c-3.537,2.077-21.261,12.234-26.525,15.3a6.153,6.153,0,0,0-3.228,5.7v30.925a6.742,6.742,0,0,0,.781,3.269,6.447,6.447,0,0,0,2.447,2.426c5.284,3.064,22.988,13.2,26.525,15.3a6.525,6.525,0,0,0,7.094.062q13.324-7.711,26.669-15.36A6.171,6.171,0,0,0,270.887,214a6.742,6.742,0,0,0,.781-3.269Z" transform="translate(0 0)" fill="#9a4993"/>
    <path id="Path_98" data-name="Path 98" d="M246.041,582.333l-32.714,18.834a6.448,6.448,0,0,0,2.447,2.426c5.284,3.064,22.988,13.2,26.525,15.3a6.523,6.523,0,0,0,7.094.062q13.324-7.711,26.669-15.36a6.171,6.171,0,0,0,2.447-2.426Z" transform="translate(-7.662 -387.183)" fill="#6a1577"/>
    <path id="Path_99" data-name="Path 99" d="M474.735,587.905a11.03,11.03,0,0,0,19.2-.062l-9.52-5.51Z" transform="translate(-246.041 -387.183)" fill="#6a1577"/>
    <path id="Path_100" data-name="Path 100" d="M617.956,373.5a6.51,6.51,0,0,0-.823-3.331l-32.467,18.691L617.175,407.7a6.742,6.742,0,0,0,.781-3.269Z" transform="translate(-346.288 -193.713)" fill="#813084"/>
    <g id="Group_7" data-name="Group 7" transform="translate(216.09 173.087)">
      <path id="Path_101" data-name="Path 101" d="M363.471,359.468a11.052,11.052,0,1,1-.082-10.939l9.643-5.552a22.145,22.145,0,1,0,.082,22.063Zm12.193-10.651h-2.2v10.63h2.2Zm4.873,0h-2.2v10.63h2.2Z" transform="translate(-331.662 -331.895)" fill="#fff"/>
      <path id="Path_102" data-name="Path 102" d="M796.721,544.289h-10.63v2.2h10.63Zm0,4.852h-10.63v2.2h10.63Z" transform="translate(-746.057 -525.578)" fill="#fff"/>
    </g>
  </g>
</svg>
