<svg xmlns="http://www.w3.org/2000/svg" width="228.449" height="229.165" viewBox="0 0 228.449 229.165">
  <g id="CustomSolution-Icon" transform="translate(1.532 1.531)">
    <path id="Path_165" data-name="Path 165" d="M109.4,13.353,96.423,45.01,56.4,4.991A45.605,45.605,0,0,1,109.4,13.353Z" transform="translate(-31.575 0)" fill="#088ab8" stroke="#000" stroke-width="3"/>
    <path id="Path_166" data-name="Path 166" d="M103.565,62.568,151.41,129.09l29.175-29.175L148.815,68.143A45.487,45.487,0,0,0,135.8,30.33Z" transform="translate(-57.975 -16.978)" fill="#19c0d9" stroke="#000" stroke-width="3"/>
    <path id="Path_167" data-name="Path 167" d="M45.59,77.166l57.184,57.184-19.84,19.84L51.162,122.419A45.6,45.6,0,0,1,4.991,56.407L35.669,87.086Z" transform="translate(0 -31.576)" fill="#088ab8" stroke="#000" stroke-width="3"/>
    <path id="Path_168" data-name="Path 168" d="M335.2,441.41l12.981-31.657L388.2,449.772A45.605,45.605,0,0,1,335.2,441.41Z" transform="translate(-187.643 -229.378)" fill="#19c0d9" stroke="#000" stroke-width="3"/>
    <path id="Path_169" data-name="Path 169" d="M310.491,323.842,262.645,257.32,233.47,286.5l31.771,31.771a45.487,45.487,0,0,0,13.011,37.813Z" transform="translate(-130.695 -144.046)" fill="#088ab8" stroke="#000" stroke-width="3"/>
    <path id="Path_170" data-name="Path 170" d="M335.718,310.486,278.534,253.3l19.84-19.84,31.771,31.771a45.6,45.6,0,0,1,46.171,66.011l-30.679-30.679Z" transform="translate(-155.922 -130.691)" fill="#19c0d9" stroke="#000" stroke-width="3"/>
    <path id="Path_171" data-name="Path 171" d="M436.714,25.217l4.96,4.96a21.1,21.1,0,0,1,0,29.758L429.632,71.977l-32.29-19.839Z" transform="translate(-222.43 -14.116)" fill="#ff6126" stroke="#000" stroke-width="3"/>
    <path id="Path_172" data-name="Path 172" d="M422.359,6.146l4.96,4.96L394.172,44.252,380.559,18.188,392.6,6.146A21.1,21.1,0,0,1,422.359,6.146Z" transform="translate(-213.035 -0.004)" fill="#ff8151" stroke="#000" stroke-width="3"/>
    <path id="Path_173" data-name="Path 173" d="M384.564,86.373,404.4,106.212l-19.839,19.839-32.289-19.839Z" transform="translate(-197.202 -48.351)" fill="#a3fdf6" stroke="#000" stroke-width="3"/>
    <path id="Path_174" data-name="Path 174" d="M355.331,41.306,375.17,61.145,349.105,87.209,335.492,61.145Z" transform="translate(-187.807 -23.123)" fill="#dbfffa" stroke="#000" stroke-width="3"/>
    <path id="Path_175" data-name="Path 175" d="M21.569,456.5l4.358,16.809L6.005,478.291Z" transform="translate(-3.362 -255.548)" fill="#000e0f" stroke="#000" stroke-width="3"/>
    <path id="Path_176" data-name="Path 176" d="M10.985,460.745l7.471,7.47L6.005,480.666Z" transform="translate(-3.362 -257.923)" fill="#116371" stroke="#000" stroke-width="3"/>
    <path id="Path_177" data-name="Path 177" d="M58.018,409.67l16.725,29.176L41.76,447.094l-7.47-7.471Z" transform="translate(-19.195 -229.331)" fill="#ffa07d" stroke="#000" stroke-width="3"/>
    <path id="Path_178" data-name="Path 178" d="M25.564,385.813l19.84,19.84L24.79,426.269l-7.471-7.47Z" transform="translate(-9.695 -215.976)" fill="#ffc0a8" stroke="#000" stroke-width="3"/>
    <path id="Path_179" data-name="Path 179" d="M212.932,131.441l19.839,19.839L100.955,283.1,81.116,263.257l56.57-75.246Z" transform="translate(-45.408 -73.58)" fill="#ffd15e" stroke="#000" stroke-width="3"/>
    <rect id="Rectangle_12" data-name="Rectangle 12" width="28.056" height="186.416" transform="translate(147.685 38.021) rotate(45)" fill="#ffea7c" stroke="#000" stroke-width="3"/>
  </g>
</svg>
