<svg xmlns="http://www.w3.org/2000/svg" width="129.607" height="131.972" viewBox="0 0 129.607 131.972">
  <g id="DB-Icon" transform="translate(-357.471 -2212.912)">
    <path id="Path_39" data-name="Path 39" d="M793.159,212.475a3.7,3.7,0,0,1-1.092,1.092.8.8,0,0,1-.364-.728C792.283,212.811,792.5,212.426,793.159,212.475Z" transform="translate(-343.052 2024.857)" fill="#19c0d9" stroke="#000" stroke-width="3" fill-rule="evenodd"/>
    <path id="Path_40" data-name="Path 40" d="M682.967,267.14c.672.116,1.812-.236,2.183.182C684.478,267.206,683.338,267.558,682.967,267.14Z" transform="translate(-260.692 1983.47)" fill="#c17f2a" stroke="#000" stroke-width="3" fill-rule="evenodd"/>
    <path id="Path_41" data-name="Path 41" d="M847.2,334.723a7.406,7.406,0,0,1,0,3.638Z" transform="translate(-385.084 1932.26)" fill="#6eb7c2" stroke="#000" stroke-width="3" fill-rule="evenodd"/>
    <path id="Path_42" data-name="Path 42" d="M847.2,370.718a102.5,102.5,0,0,1,0,13.643Z" transform="translate(-385.084 1904.996)" fill="#6eb7c2" stroke="#000" stroke-width="3" fill-rule="evenodd"/>
    <path id="Path_43" data-name="Path 43" d="M663.47,415.713H670.2A25.034,25.034,0,0,1,663.47,415.713Z" transform="translate(-245.924 1870.916)" fill="#f68520" stroke="#000" stroke-width="3" fill-rule="evenodd"/>
    <path id="Path_44" data-name="Path 44" d="M729.142,432.552c.408-.2.32-.893.728-1.091v2.728c-.418.371-.066,1.511-.182,2.183a11.914,11.914,0,0,0-.91,2,34.373,34.373,0,0,1-5.093,5.094c-.968.366-1.629,1.039-2.547,1.455a23.183,23.183,0,0,0-2.729,1.455,75.037,75.037,0,0,1-22.374,5.093c-.553.114-1.567-.233-1.819.182h-1.637c.089-1.671-.134-3.778,0-4.911.553-.114,1.567.233,1.819-.182a65.477,65.477,0,0,0,24.194-5.275,5.94,5.94,0,0,0,2.365-1.274,15.447,15.447,0,0,0,3.82-2.365,14.986,14.986,0,0,0,3.82-4C728.758,433.26,729.151,433.106,729.142,432.552Z" transform="translate(-267.939 1858.988)" fill="#ad5526" stroke="#000" stroke-width="3" fill-rule="evenodd"/>
    <path id="Path_45" data-name="Path 45" d="M696.466,436.05c.611-.42,2-.064,2.91-.182C698.766,436.288,697.379,435.931,696.466,436.05Z" transform="translate(-270.916 1855.672)" fill="#c17f2a" stroke="#000" stroke-width="3" fill-rule="evenodd"/>
    <path id="Path_46" data-name="Path 46" d="M845.788,442.709v2.183h-.182C845.723,444.22,845.371,443.08,845.788,442.709Z" transform="translate(-383.858 1850.468)" fill="#c17f2a" stroke="#000" stroke-width="3" fill-rule="evenodd"/>
    <path id="Path_47" data-name="Path 47" d="M846.447,447.959a108.034,108.034,0,0,1,0,14.007V447.959Z" transform="translate(-384.516 1846.492)" fill="#faa41c" stroke="#000" stroke-width="3" fill-rule="evenodd"/>
    <path id="Path_48" data-name="Path 48" d="M659.72,493.614c.553.114,1.567-.233,1.819.182C660.986,493.682,659.972,494.029,659.72,493.614Z" transform="translate(-243.084 1811.932)" fill="#f68520" stroke="#000" stroke-width="3" fill-rule="evenodd"/>
    <path id="Path_49" data-name="Path 49" d="M545.47,529.461c-11.535-1.092-24.574-4.043-30.924-10.732a10.6,10.6,0,0,1-2.911-9.277c6.469,10.933,20.511,14.294,37.109,15.1a25.042,25.042,0,0,0,6.73,0h1.274c-1.717.163-.588,3.172-.91,4.729.766.387,2.216.088,3.274.182-.731.421-2.241.063-3.274.182h-8.55C547.037,529.228,546.022,529.575,545.47,529.461Z" transform="translate(-130.834 1799.916)" fill="#c17f2a" stroke="#000" stroke-width="3" fill-rule="evenodd"/>
    <path id="Path_50" data-name="Path 50" d="M699.465,514.043c.252-.415,1.267-.068,1.819-.182C701.032,514.276,700.018,513.929,699.465,514.043Z" transform="translate(-273.188 1796.597)" fill="#c17f2a" stroke="#000" stroke-width="3" fill-rule="evenodd"/>
    <path id="Path_51" data-name="Path 51" d="M667.219,514.7h5.821A18.746,18.746,0,0,1,667.219,514.7Z" transform="translate(-248.764 1795.94)" fill="#f68520" stroke="#000" stroke-width="3" fill-rule="evenodd"/>
    <path id="Path_52" data-name="Path 52" d="M703.965,571.034c.371-.417,1.511-.066,2.183-.182C705.777,571.27,704.637,570.918,703.965,571.034Z" transform="translate(-276.596 1753.43)" fill="#c17f2a" stroke="#000" stroke-width="3" fill-rule="evenodd"/>
    <path id="Path_53" data-name="Path 53" d="M664.97,571.693h6.73A25.032,25.032,0,0,1,664.97,571.693Z" transform="translate(-247.06 1752.772)" fill="#f68520" stroke="#000" stroke-width="3" fill-rule="evenodd"/>
    <path id="Path_54" data-name="Path 54" d="M651.471,591.851c.553.114,1.567-.233,1.819.182C652.737,591.92,651.723,592.266,651.471,591.851Z" transform="translate(-236.836 1737.525)" fill="#f68520" stroke="#000" stroke-width="3" fill-rule="evenodd"/>
    <path id="Path_55" data-name="Path 55" d="M472.024,118h1.637c-23.211,2.923-36.658,15.61-38.928,39.474.765-.027,2.27-.88,3.456-1.091-8.417,3.043-14.964,9.533-16.19,20.373v-1.092a22.312,22.312,0,0,1,10.369-16.553c.719-.452,1.935-1.066,2.183-1.637.5-1.157.193-3.179.364-4.548a38.354,38.354,0,0,1,11.1-22.556A40.4,40.4,0,0,1,472.024,118Z" transform="translate(-63.028 2096.412)" fill="#6eb7c2" stroke="#000" stroke-width="3" fill-rule="evenodd"/>
    <path id="Path_56" data-name="Path 56" d="M645.472,118h1.637v.182c17.209,1.649,27.107,10.608,33.653,22.92a26.258,26.258,0,0,1,5.639-1.274c18.484-1.345,28.684,10.465,31.47,25.467v.728c-2.486-16.643-15.537-29.137-35.471-25.1-.655-.049-.877.336-1.455.364a.8.8,0,0,0,.364.728c.034.155-.071.172-.182.182C674.518,128.852,663.708,119.713,645.472,118Z" transform="translate(-232.292 2096.412)" fill="#6eb7c2" stroke="#000" stroke-width="3" fill-rule="evenodd"/>
    <path id="Path_57" data-name="Path 57" d="M497.127,267.058v.182a70.581,70.581,0,0,0-9.641-.546c-.371-.417-1.511-.066-2.183-.182-15.206.193-31.544,2.916-38.928,11.278-1.928,2.184-3.506,5.522-2.547,9.1a27.223,27.223,0,0,1-.182,5.094,76.727,76.727,0,0,0,.182,14.007,28.2,28.2,0,0,1-.364,6v.182c-12.64-1.186-19.355-8.3-21.465-20.01v-1.092c1.866,12.141,8.507,19.507,21.1,20.919,1.217-6.16-.391-13.1.182-19.646.41-4.678-.588-9.381,1.455-12.734,2.424-3.978,6.87-6.089,10.914-8.186-1.4-1.265-4.334-1.971-5.639-2.729a26.772,26.772,0,0,1,6,2.547C466.465,266.7,482.545,265.2,497.127,267.058Z" transform="translate(-63.027 1984.099)" fill="#6eb7c2" stroke="#000" stroke-width="3" fill-rule="evenodd"/>
    <path id="Path_58" data-name="Path 58" d="M870.1,336.223v.728c-2.275,14.036-10.522,22.1-23.648,25.285v-.364C859.977,358.969,867.743,350.3,870.1,336.223Z" transform="translate(-384.517 1931.124)" fill="#6eb7c2" stroke="#000" stroke-width="3" fill-rule="evenodd"/>
    <path id="Path_59" data-name="Path 59" d="M837.448,315.975a5.759,5.759,0,0,1,1.819,2.729c-.409-.379-.52-1.056-.91-1.455A15.414,15.414,0,0,0,837.448,315.975Z" transform="translate(-377.7 1946.46)" fill="#6eb7c2" stroke="#000" stroke-width="3" fill-rule="evenodd"/>
    <path id="Path_60" data-name="Path 60" d="M828.36,306.706c-.984-.9-1.976-1.783-2.911-2.729A14.272,14.272,0,0,1,828.36,306.706Z" transform="translate(-368.612 1955.547)" fill="#6eb7c2" stroke="#000" stroke-width="3" fill-rule="evenodd"/>
    <path id="Path_61" data-name="Path 61" d="M796.34,287.639c-.346-.078-.457-.392-.909-.364-.05-.374-.678-.171-.728-.546a5.055,5.055,0,0,1,1.819.91Z" transform="translate(-345.324 1968.612)" fill="#6eb7c2" stroke="#000" stroke-width="3" fill-rule="evenodd"/>
    <path id="Path_62" data-name="Path 62" d="M744.808,227.386a74.818,74.818,0,0,0-13.1-3.275v-.182c4.866-4.229,9.937-8.254,14.735-12.552.111-.01.215-.027.182-.182a3.7,3.7,0,0,0,1.092-1.092c19.935-4.034,32.985,8.46,35.471,25.1v4.912c-2.353,14.08-10.118,22.746-23.647,25.649v-2.547c-.131-.556.186-.663.182-1.092a102.524,102.524,0,0,0,0-13.643v-5.094a7.407,7.407,0,0,0,0-3.638c.033-.155-.071-.172-.182-.182.167-.835-.455-.879-.364-1.637a5.758,5.758,0,0,0-1.819-2.729v-.182a14.278,14.278,0,0,0-2.911-2.729c-1.277-.663-2.293-1.587-3.638-2.183h-.182c-.373-.6-1.246-.695-1.819-1.092a5.06,5.06,0,0,0-1.819-.91C746.076,228.059,745.635,227.529,744.808,227.386Z" transform="translate(-297.612 2027.227)" fill="#088ab8" stroke="#000" stroke-width="3" fill-rule="evenodd"/>
    <path id="Path_63" data-name="Path 63" d="M785.7,283.729c.827.143,1.268.672,2.183.728.05.374.678.171.728.546A11.91,11.91,0,0,1,785.7,283.729Z" transform="translate(-338.508 1970.884)" fill="#c17f2a" stroke="#000" stroke-width="3" fill-rule="evenodd"/>
    <path id="Path_64" data-name="Path 64" d="M801.452,290.479h.182c.573.4,1.445.495,1.819,1.092A12.552,12.552,0,0,1,801.452,290.479Z" transform="translate(-350.436 1965.771)" fill="#c17f2a" stroke="#000" stroke-width="3" fill-rule="evenodd"/>
    <path id="Path_65" data-name="Path 65" d="M810.451,294.978c1.345.6,2.361,1.52,3.638,2.183.934.945,1.926,1.834,2.911,2.729v.182a15.48,15.48,0,0,1,.909,1.274A27,27,0,0,0,810.451,294.978Z" transform="translate(-357.252 1962.364)" fill="#c17f2a" stroke="#000" stroke-width="3" fill-rule="evenodd"/>
    <path id="Path_66" data-name="Path 66" d="M826.949,368.948a23.141,23.141,0,0,1,2.729-2.729v.182C828.661,367.143,827.966,368.206,826.949,368.948Z" transform="translate(-369.748 1908.404)" fill="#f68520" stroke="#000" stroke-width="3" fill-rule="evenodd"/>
    <path id="Path_67" data-name="Path 67" d="M815.752,381.559h-.182a7.449,7.449,0,0,1,1.637-1.092c-.232.556-1.042.535-1.274,1.092Z" transform="translate(-361.097 1897.612)" fill="#f68520" stroke="#000" stroke-width="3" fill-rule="evenodd"/>
    <path id="Path_68" data-name="Path 68" d="M521.737,368.469a10.29,10.29,0,0,1,1.819,1.819A10.3,10.3,0,0,1,521.737,368.469Z" transform="translate(-138.572 1906.699)" fill="#f68520" stroke="#000" stroke-width="3" fill-rule="evenodd"/>
    <path id="Path_69" data-name="Path 69" d="M511.421,351.221a11.151,11.151,0,0,0,2.365,4.184,10.292,10.292,0,0,0,1.819,1.819c7.92,6.148,18.842,9.293,32.561,9.641a25.036,25.036,0,0,0,6.731,0h3.638c-.938.457-2.845-.056-3.82.364.107,1.53-.223,3.5.182,4.729h-.364c-19.549-.1-36.2-3.092-43.294-15.644A27.215,27.215,0,0,0,511.421,351.221Z" transform="translate(-130.62 1919.764)" fill="#c17f2a" stroke="#000" stroke-width="3" fill-rule="evenodd"/>
    <path id="Path_70" data-name="Path 70" d="M510.853,429.961c5.808,11.291,19.969,14.229,35.835,15.462.252.415,1.266.068,1.819.182h5.821a6.057,6.057,0,0,1,2.183-.182c-.252.415-1.266.068-1.819.182-.133,1.134.089,3.241,0,4.911h-6.185c-15.705-.989-32.5-4.09-37.654-15.826-.521.025.157,1.249-.364,1.273A28.206,28.206,0,0,0,510.853,429.961Z" transform="translate(-130.052 1860.124)" fill="#c17f2a" stroke="#000" stroke-width="3" fill-rule="evenodd"/>
    <path id="Path_71" data-name="Path 71" d="M840.2,333.973c.111.01.216.027.182.182v7.64c-.413-.193-.069-1.143-.182-1.637-.591-.1-1.258,1.285-2,1.637C839.88,340.2,840.478,337.526,840.2,333.973Z" transform="translate(-378.268 1932.828)" fill="#c17f2a" stroke="#000" stroke-width="3" fill-rule="evenodd"/>
    <path id="Path_72" data-name="Path 72" d="M554.456,484.2c.527,4.142-.158,9.5.364,13.643,2.256.012,4.19-.3,6.367-.364-.958.5-2.768.142-3.82.546H544.452a74.341,74.341,0,0,1-20.192-4.366c-5.569-2.116-12.429-5.5-14.007-11.46-1.1-4.15-.24-9.867-.182-15.462.056-5.307-.089-10.712-.182-15.826v-.182c.521-.025-.157-1.249.364-1.273,5.158,11.736,21.949,14.837,37.654,15.826a18.752,18.752,0,0,0,5.821,0h.182c.512,4.218-.137,9.6.364,13.825h-6.912c-16.6-.8-30.64-4.165-37.109-15.1a10.6,10.6,0,0,0,2.911,9.277c6.35,6.689,19.39,9.641,30.924,10.732.252.415,1.266.068,1.819.182Z" transform="translate(-129.453 1845.355)" fill="#faa41c" stroke="#000" stroke-width="3" fill-rule="evenodd"/>
    <path id="Path_73" data-name="Path 73" d="M722.713,644.594c1.867-.376,3.832-.655,5.821-.909A25.029,25.029,0,0,1,722.713,644.594Z" transform="translate(-290.797 1698.243)" fill="#faa41c" stroke="#000" stroke-width="3" fill-rule="evenodd"/>
    <path id="Path_74" data-name="Path 74" d="M747.459,555.645c10.248-2.607,20.23-5.479,24.012-14.553V527.45c.424,4.184.061,9.156.182,13.643C767.8,550.151,758.092,553.362,747.459,555.645Z" transform="translate(-309.54 1786.283)" fill="#faa41c" stroke="#000" stroke-width="3" fill-rule="evenodd"/>
    <path id="Path_75" data-name="Path 75" d="M841.72,374.468a4.123,4.123,0,0,1-1.273,2.183C840.985,376.036,841.173,375.073,841.72,374.468Z" transform="translate(-379.972 1902.156)" fill="#c17f2a" stroke="#000" stroke-width="3" fill-rule="evenodd"/>
    <path id="Path_76" data-name="Path 76" d="M820.95,393.877c1.073-.989,2.229-1.894,3.274-2.911A13,13,0,0,1,820.95,393.877Z" transform="translate(-365.204 1889.66)" fill="#c17f2a" stroke="#000" stroke-width="3" fill-rule="evenodd"/>
    <path id="Path_77" data-name="Path 77" d="M799.2,410.419a23.19,23.19,0,0,1,2.728-1.455A7.856,7.856,0,0,1,799.2,410.419Z" transform="translate(-348.732 1876.027)" fill="#c17f2a" stroke="#000" stroke-width="3" fill-rule="evenodd"/>
    <path id="Path_78" data-name="Path 78" d="M817.2,371.334c.232-.556,1.042-.535,1.274-1.092.639.032.6-.614,1.091-.728,1.017-.741,1.712-1.805,2.729-2.547A18.751,18.751,0,0,1,817.2,371.334Z" transform="translate(-362.364 1907.836)" fill="#c17f2a" stroke="#000" stroke-width="3" fill-rule="evenodd"/>
    <path id="Path_79" data-name="Path 79" d="M844.357,369.969v13.825c0,.429-.313.536-.182,1.091-.408.2-.32.893-.728,1.091,1.347-3.747.646-10.51.546-15.1C844.093,370.555,844.086,370.123,844.357,369.969Z" transform="translate(-382.244 1905.563)" fill="#c17f2a" stroke="#000" stroke-width="3" fill-rule="evenodd"/>
    <path id="Path_80" data-name="Path 80" d="M727.008,388.816c.008.554-.384.707-.546,1.092a44.917,44.917,0,0,1-3.82,4,15.44,15.44,0,0,1-3.82,2.365,17.433,17.433,0,0,0-2.365,1.273,65.478,65.478,0,0,1-24.194,5.275c-2.183,0-1.637-.06-2.183.182.084-4.151-.05-9.649-.364-14.007h1.637c.913-.118,2.3.238,2.91-.182a72.755,72.755,0,0,0,22.011-5.093A7.851,7.851,0,0,0,719,382.268c.918-.416,1.579-1.089,2.547-1.455a13,13,0,0,0,3.274-2.911,12.232,12.232,0,0,0,1.455-1.819,4.122,4.122,0,0,0,1.273-2.183v-.182C727.654,378.306,728.355,385.07,727.008,388.816Z" transform="translate(-265.805 1902.724)" fill="#f68520" stroke="#000" stroke-width="3" fill-rule="evenodd"/>
    <path id="Path_81" data-name="Path 81" d="M825.449,444.462a44.971,44.971,0,0,0,3.82-4A14.983,14.983,0,0,1,825.449,444.462Z" transform="translate(-368.612 1852.171)" fill="#c17f2a" stroke="#000" stroke-width="3" fill-rule="evenodd"/>
    <path id="Path_82" data-name="Path 82" d="M799.953,467.979a17.422,17.422,0,0,1,2.365-1.273A5.94,5.94,0,0,1,799.953,467.979Z" transform="translate(-349.3 1832.292)" fill="#c17f2a" stroke="#000" stroke-width="3" fill-rule="evenodd"/>
    <path id="Path_83" data-name="Path 83" d="M820.95,465.051a34.367,34.367,0,0,0,5.093-5.094A18.271,18.271,0,0,1,820.95,465.051Z" transform="translate(-365.204 1837.404)" fill="#c17f2a" stroke="#000" stroke-width="3" fill-rule="evenodd"/>
    <path id="Path_84" data-name="Path 84" d="M799.2,488.409a23.217,23.217,0,0,1,2.728-1.455A7.848,7.848,0,0,1,799.2,488.409Z" transform="translate(-348.732 1816.956)" fill="#c17f2a" stroke="#000" stroke-width="3" fill-rule="evenodd"/>
    <path id="Path_85" data-name="Path 85" d="M822.45,527.541c1.1-1.083,2.346-2.019,3.456-3.092A16.318,16.318,0,0,1,822.45,527.541Z" transform="translate(-366.34 1788.556)" fill="#c17f2a" stroke="#000" stroke-width="3" fill-rule="evenodd"/>
    <path id="Path_86" data-name="Path 86" d="M723.618,472.445c-6.852,4.729-15.953,7.21-26.558,8.186-.672.116-1.812-.236-2.183.182H692.33c-.5-4.229.148-9.607-.364-13.825h1.819c.553-.114,1.567.233,1.819-.182a75.047,75.047,0,0,0,22.374-5.093,7.852,7.852,0,0,0,2.729-1.455c.918-.416,1.579-1.089,2.547-1.455a18.266,18.266,0,0,0,5.093-5.094,11.969,11.969,0,0,1,.91-2h.182v13.825c-.359.126-.485.485-.546.91a8.7,8.7,0,0,1-1.819,2.91C725.964,470.426,724.718,471.362,723.618,472.445Z" transform="translate(-267.508 1843.652)" fill="#f68520" stroke="#000" stroke-width="3" fill-rule="evenodd"/>
    <path id="Path_87" data-name="Path 87" d="M844.743,508.7c.1,1.567-.148,3.508,0,4.548v.545c-.2.045-.124.362-.364.364-.032-1.086.639-3.46-.182-4.547C844.258,509.186,844.384,508.827,844.743,508.7Z" transform="translate(-382.812 1800.484)" fill="#c17f2a" stroke="#000" stroke-width="3" fill-rule="evenodd"/>
    <path id="Path_88" data-name="Path 88" d="M834.448,540.13c.651-.683,1.141-1.526,1.819-2.183A6.247,6.247,0,0,1,834.448,540.13Z" transform="translate(-375.428 1778.332)" fill="#c17f2a" stroke="#000" stroke-width="3" fill-rule="evenodd"/>
    <path id="Path_89" data-name="Path 89" d="M820.95,550.425a38.468,38.468,0,0,1,3.274-2.729A19.567,19.567,0,0,1,820.95,550.425Z" transform="translate(-365.204 1770.948)" fill="#c17f2a" stroke="#000" stroke-width="3" fill-rule="evenodd"/>
    <path id="Path_90" data-name="Path 90" d="M697.49,544.8c10.858-.965,20.16-3.487,27.468-8a19.59,19.59,0,0,0,3.274-2.729v-.182a6.256,6.256,0,0,0,1.819-2.183,7.931,7.931,0,0,1,.728-1.637c.241,0,.167-.319.364-.364v13.1c-3.782,9.074-13.764,11.946-24.012,14.553h-.182c-1.989.254-3.954.533-5.821.91h-.182c-2.176.067-4.111.376-6.367.364-.521-4.147.163-9.5-.364-13.643C695.249,544.859,696.759,545.217,697.49,544.8Z" transform="translate(-269.212 1784.58)" fill="#f68520" stroke="#000" stroke-width="3" fill-rule="evenodd"/>
    <path id="Path_91" data-name="Path 91" d="M592.217,283.422c.278,3.553-.32,6.229-2,7.822a23.15,23.15,0,0,0-2.729,2.729c-.493.113-.453.76-1.091.728a7.441,7.441,0,0,0-1.637,1.092h.182c-6.248,4.3-15.117,5.984-24.376,7.276-1.275.12-3.029-.24-4,.182h-8.731c-13.719-.349-24.641-3.493-32.561-9.641a10.286,10.286,0,0,0-1.819-1.819,11.16,11.16,0,0,1-2.365-4.184c-.959-3.574.618-6.911,2.547-9.1,7.384-8.363,23.722-11.085,38.928-11.278.371.417,1.511.066,2.183.182a70.517,70.517,0,0,1,9.641.546,74.769,74.769,0,0,1,13.1,3.274,11.91,11.91,0,0,0,2.911,1.273c.452-.028.563.286.91.364a12.522,12.522,0,0,0,2,1.092h.182a27,27,0,0,1,7.458,6.367c.39.4.5,1.077.91,1.455C591.762,282.543,592.385,282.587,592.217,283.422Z" transform="translate(-130.286 1983.378)" fill="#faa41c" stroke="#000" stroke-width="3" fill-rule="evenodd"/>
    <path id="Path_92" data-name="Path 92" d="M510.521,372.218c7.095,12.552,23.745,15.546,43.294,15.644.314,4.358.448,9.856.364,14.007h-5.821c-.252-.415-1.266-.068-1.819-.182-15.867-1.233-30.027-4.171-35.836-15.462A76.738,76.738,0,0,1,510.521,372.218Z" transform="translate(-129.902 1903.86)" fill="#faa41c" stroke="#000" stroke-width="3" fill-rule="evenodd"/>
    <path id="Path_93" data-name="Path 93" d="M696.569,372.915c9.259-1.292,18.128-2.974,24.376-7.276h.182a18.759,18.759,0,0,0,5.094-4.366v-.182c.743-.352,1.41-1.738,2-1.637.113.494-.231,1.444.182,1.637V362c-.27.154-.263.586-.364.91v.182c-.547.605-.736,1.569-1.273,2.183a12.242,12.242,0,0,1-1.455,1.819c-1.045,1.017-2.2,1.921-3.274,2.911-.968.366-1.629,1.039-2.547,1.455a23.156,23.156,0,0,0-2.729,1.455,72.756,72.756,0,0,1-22.011,5.093c-.912.118-2.3-.238-2.91.182h-1.273c-.4-1.232-.075-3.2-.182-4.729.975-.419,2.882.093,3.82-.364C694.937,372.98,696.139,373.333,696.569,372.915Z" transform="translate(-266.29 1913.532)" fill="#ad5526" stroke="#000" stroke-width="3" fill-rule="evenodd"/>
    <path id="Path_94" data-name="Path 94" d="M699.465,415.051c.973-.422,2.727-.062,4-.182-.43.418-1.633.065-2.365.182Z" transform="translate(-273.188 1871.577)" fill="#f68520" stroke="#000" stroke-width="3" fill-rule="evenodd"/>
    <path id="Path_95" data-name="Path 95" d="M730.375,512.451c.821,1.088.15,3.462.182,4.548a7.929,7.929,0,0,0-.728,1.637c-.678.657-1.168,1.5-1.819,2.183V521a38.462,38.462,0,0,0-3.274,2.729c-7.307,4.516-16.61,7.038-27.468,8-1.058-.094-2.509.2-3.274-.182.322-1.557-.807-4.566.91-4.729h1.455c.672-.116,1.812.235,2.183-.182,10.606-.975,19.706-3.456,26.558-8.186a16.321,16.321,0,0,0,3.456-3.093A8.7,8.7,0,0,0,730.375,512.451Z" transform="translate(-268.99 1797.644)" fill="#ad5526" stroke="#000" stroke-width="3" fill-rule="evenodd"/>
    <path id="Path_96" data-name="Path 96" d="M473.662,118h2.547c18.237,1.713,29.046,10.852,35.654,24.193-4.8,4.3-9.869,8.322-14.734,12.552-14.581-1.855-30.661-.354-41.111,4.184a26.768,26.768,0,0,0-6-2.547c1.305.757,4.235,1.463,5.639,2.729-4.044,2.1-8.49,4.208-10.914,8.186-2.043,3.353-1.046,8.055-1.455,12.734-.573,6.543,1.036,13.486-.182,19.646-12.594-1.413-19.235-8.778-21.1-20.919v-2c1.226-10.84,7.773-17.33,16.19-20.373-1.186.211-2.691,1.065-3.456,1.091C437,133.61,450.452,120.923,473.662,118Z" transform="translate(-63.029 2096.412)" fill="#19c0d9" stroke="#000" stroke-width="3" fill-rule="evenodd"/>
  </g>
</svg>
