<svg id="facebook" xmlns="http://www.w3.org/2000/svg" width="49" height="49" viewBox="0 0 49 49">
  <g id="Group_137" data-name="Group 137">
    <path id="Path_180" data-name="Path 180" d="M43.258,0H5.742A5.749,5.749,0,0,0,0,5.742V43.258A5.749,5.749,0,0,0,5.742,49H43.258A5.749,5.749,0,0,0,49,43.258V5.742A5.749,5.749,0,0,0,43.258,0Zm1.914,43.258a1.916,1.916,0,0,1-1.914,1.914H32.348v-15.6h5.913l.977-5.934H32.348V19.523a2.823,2.823,0,0,1,2.871-2.871h3.924V10.719H35.219a8.8,8.8,0,0,0-8.8,8.821v4.1H20.672v5.934h5.744v15.6H5.742a1.916,1.916,0,0,1-1.914-1.914V5.742A1.916,1.916,0,0,1,5.742,3.828H43.258a1.916,1.916,0,0,1,1.914,1.914Z"/>
  </g>
</svg>
