<svg id="instagram" xmlns="http://www.w3.org/2000/svg" width="48.739" height="48.749" viewBox="0 0 48.739 48.749">
  <path id="Path_181" data-name="Path 181" d="M49.064,14.332a17.813,17.813,0,0,0-1.133-5.914A12.488,12.488,0,0,0,40.8,1.286,17.859,17.859,0,0,0,34.884.153C32.275.029,31.446,0,24.828,0S17.381.029,14.781.143A17.818,17.818,0,0,0,8.867,1.276,11.894,11.894,0,0,0,4.543,4.095,12,12,0,0,0,1.734,8.409,17.861,17.861,0,0,0,.6,14.323C.477,16.932.449,17.761.449,24.379s.029,7.447.143,10.047A17.812,17.812,0,0,0,1.725,40.34a12.486,12.486,0,0,0,7.133,7.133,17.861,17.861,0,0,0,5.914,1.133c2.6.115,3.428.143,10.047.143s7.447-.028,10.047-.143a17.808,17.808,0,0,0,5.914-1.133,12.469,12.469,0,0,0,7.133-7.133,17.872,17.872,0,0,0,1.133-5.914c.114-2.6.143-3.428.143-10.047s-.01-7.447-.124-10.047Zm-4.39,19.9a13.362,13.362,0,0,1-.838,4.523,8.087,8.087,0,0,1-4.628,4.628,13.409,13.409,0,0,1-4.523.838c-2.571.115-3.342.143-9.847.143s-7.285-.028-9.847-.143a13.355,13.355,0,0,1-4.523-.838,7.5,7.5,0,0,1-2.8-1.819,7.579,7.579,0,0,1-1.819-2.8,13.411,13.411,0,0,1-.838-4.523C4.9,31.674,4.868,30.9,4.868,24.4s.028-7.285.143-9.847a13.355,13.355,0,0,1,.838-4.523,7.409,7.409,0,0,1,1.829-2.8,7.567,7.567,0,0,1,2.8-1.819A13.418,13.418,0,0,1,15,4.571c2.571-.114,3.343-.143,9.847-.143s7.285.029,9.847.143a13.362,13.362,0,0,1,4.523.838,7.5,7.5,0,0,1,2.8,1.819,7.577,7.577,0,0,1,1.819,2.8,13.416,13.416,0,0,1,.838,4.523c.114,2.571.143,3.342.143,9.847s-.029,7.266-.143,9.837Zm0,0" transform="translate(-0.449 0)"/>
  <path id="Path_182" data-name="Path 182" d="M137.472,124.5a12.523,12.523,0,1,0,12.523,12.523A12.526,12.526,0,0,0,137.472,124.5Zm0,20.646a8.123,8.123,0,1,1,8.123-8.123,8.125,8.125,0,0,1-8.123,8.123Zm0,0" transform="translate(-113.093 -112.644)"/>
  <path id="Path_183" data-name="Path 183" d="M368.3,91.525a2.924,2.924,0,1,1-2.924-2.924,2.924,2.924,0,0,1,2.924,2.924Zm0,0" transform="translate(-327.976 -80.164)"/>
</svg>
