<svg xmlns="http://www.w3.org/2000/svg" width="203.373" height="225.383" viewBox="0 0 203.373 225.383">
  <g id="Integration-Icon" transform="translate(-12.5)">
    <g id="Group_136" data-name="Group 136" transform="translate(12.5 0)">
      <g id="Group_9" data-name="Group 9" transform="translate(2.201 163.755)">
        <g id="Group_8" data-name="Group 8">
          <path id="Path_103" data-name="Path 103" d="M15,186v55.468a3.971,3.971,0,0,0,3.959,3.959H67.387a3.971,3.971,0,0,0,3.959-3.959V186Z" transform="translate(-15 -186)" fill="#70d6f9"/>
        </g>
      </g>
      <g id="Group_11" data-name="Group 11" transform="translate(73.514 163.755)">
        <g id="Group_10" data-name="Group 10">
          <path id="Path_104" data-name="Path 104" d="M96,186v55.468a3.971,3.971,0,0,0,3.959,3.959h48.427a3.971,3.971,0,0,0,3.959-3.959V186Z" transform="translate(-96 -186)" fill="#70d6f9"/>
        </g>
      </g>
      <g id="Group_13" data-name="Group 13" transform="translate(144.826 163.755)">
        <g id="Group_12" data-name="Group 12">
          <path id="Path_105" data-name="Path 105" d="M177,186v55.468a3.971,3.971,0,0,0,3.959,3.959h48.427a3.971,3.971,0,0,0,3.959-3.959V186Z" transform="translate(-177 -186)" fill="#70d6f9"/>
        </g>
      </g>
      <g id="Group_15" data-name="Group 15" transform="translate(2.201 153.63)">
        <g id="Group_14" data-name="Group 14">
          <path id="Path_106" data-name="Path 106" d="M67.387,174.5H18.959A3.971,3.971,0,0,0,15,178.459v6.165H71.346v-6.165A3.971,3.971,0,0,0,67.387,174.5Z" transform="translate(-15 -174.5)" fill="#fcdd86"/>
        </g>
      </g>
      <g id="Group_17" data-name="Group 17" transform="translate(73.513 153.63)">
        <g id="Group_16" data-name="Group 16">
          <path id="Path_107" data-name="Path 107" d="M148.387,174.5H99.958A3.971,3.971,0,0,0,96,178.459v6.165h56.346v-6.165a3.97,3.97,0,0,0-3.958-3.959Z" transform="translate(-95.999 -174.5)" fill="#fcdd86"/>
        </g>
      </g>
      <g id="Group_19" data-name="Group 19" transform="translate(144.826 153.63)">
        <g id="Group_18" data-name="Group 18">
          <path id="Path_108" data-name="Path 108" d="M229.387,174.5H180.958A3.971,3.971,0,0,0,177,178.459v6.165h56.346v-6.165A3.97,3.97,0,0,0,229.387,174.5Z" transform="translate(-176.999 -174.5)" fill="#fcdd86"/>
        </g>
      </g>
      <g id="Group_21" data-name="Group 21" transform="translate(165.303)">
        <g id="Group_20" data-name="Group 20" transform="translate(0)">
          <path id="Path_109" data-name="Path 109" d="M215.169,7.528a9.015,9.015,0,0,0-7.226,7.079.163.163,0,0,1-.32,0A9.015,9.015,0,0,0,200.4,7.528a.159.159,0,0,1,0-.314A9.015,9.015,0,0,0,207.622.135a.163.163,0,0,1,.32,0,9.015,9.015,0,0,0,7.226,7.079.159.159,0,0,1,0,.314Z" transform="translate(-200.258 0)" fill="#f5c84c"/>
        </g>
      </g>
      <g id="Group_23" data-name="Group 23" transform="translate(172.832 103.008)">
        <g id="Group_22" data-name="Group 22" transform="translate(0)">
          <path id="Path_110" data-name="Path 110" d="M219.267,122.281a6.323,6.323,0,0,0-5.068,4.965.114.114,0,0,1-.225,0,6.323,6.323,0,0,0-5.068-4.965.111.111,0,0,1,0-.22,6.323,6.323,0,0,0,5.068-4.965.114.114,0,0,1,.225,0,6.323,6.323,0,0,0,5.068,4.965A.111.111,0,0,1,219.267,122.281Z" transform="translate(-208.809 -117.001)" fill="#fc657e"/>
        </g>
      </g>
      <g id="Group_25" data-name="Group 25" transform="translate(172.894 26.412)">
        <g id="Group_24" data-name="Group 24">
          <circle id="Ellipse_6" data-name="Ellipse 6" cx="2.973" cy="2.973" r="2.973" fill="#87d147"/>
        </g>
      </g>
      <g id="Group_27" data-name="Group 27" transform="translate(10.019 126.778)">
        <g id="Group_26" data-name="Group 26">
          <circle id="Ellipse_7" data-name="Ellipse 7" cx="2.973" cy="2.973" r="2.973" fill="#f5c84c"/>
        </g>
      </g>
      <g id="Group_29" data-name="Group 29" transform="translate(18.632 100.772)">
        <g id="Group_28" data-name="Group 28">
          <path id="Path_111" data-name="Path 111" d="M43.406,118.244H41.8v-1.606a2.177,2.177,0,0,0-4.354,0v1.606H35.84a2.177,2.177,0,0,0,0,4.354h1.606V124.2a2.177,2.177,0,1,0,4.354,0V122.6h1.606a2.177,2.177,0,0,0,0-4.354Z" transform="translate(-33.663 -114.461)" fill="#70d6f9"/>
        </g>
      </g>
      <g id="Group_31" data-name="Group 31" transform="translate(43.133 29.656)">
        <g id="Group_30" data-name="Group 30">
          <path id="Path_112" data-name="Path 112" d="M61.492,33.684v72.438a4.279,4.279,0,0,0,4.279,4.279H174.322a4.279,4.279,0,0,0,4.279-4.279V33.684Z" transform="translate(-61.492 -33.684)" fill="#edf4fc"/>
        </g>
      </g>
      <g id="Group_33" data-name="Group 33" transform="translate(43.133 12.766)">
        <g id="Group_32" data-name="Group 32">
          <path id="Path_113" data-name="Path 113" d="M174.321,14.5H65.771a4.279,4.279,0,0,0-4.279,4.279V31.39H178.6V18.779A4.279,4.279,0,0,0,174.321,14.5Z" transform="translate(-61.492 -14.5)" fill="#5290db"/>
        </g>
      </g>
      <g id="Group_35" data-name="Group 35" transform="translate(43.133 12.766)">
        <g id="Group_34" data-name="Group 34">
          <path id="Path_114" data-name="Path 114" d="M79.588,14.5H65.771a4.279,4.279,0,0,0-4.279,4.279V31.39h18.1Z" transform="translate(-61.492 -14.5)" fill="#fc657e"/>
        </g>
      </g>
      <g id="Group_37" data-name="Group 37" transform="translate(70.287 19.01)">
        <g id="Group_36" data-name="Group 36">
          <path id="Path_115" data-name="Path 115" d="M153.737,25.994h-59.2a2.2,2.2,0,0,1,0-4.4h59.2a2.2,2.2,0,0,1,0,4.4Z" transform="translate(-92.335 -21.592)"/>
        </g>
      </g>
      <g id="Group_39" data-name="Group 39" transform="translate(139.867 19.01)">
        <g id="Group_38" data-name="Group 38" transform="translate(0)">
          <path id="Path_116" data-name="Path 116" d="M182.322,25.994h-8.754a2.2,2.2,0,0,1,0-4.4h8.754a2.2,2.2,0,1,1,0,4.4Z" transform="translate(-171.367 -21.592)"/>
        </g>
      </g>
      <g id="Group_41" data-name="Group 41" transform="translate(40.933 27.455)">
        <g id="Group_40" data-name="Group 40">
          <path id="Path_117" data-name="Path 117" d="M174.022,112.3H65.472a6.486,6.486,0,0,1-6.479-6.479V33.385a2.2,2.2,0,0,1,4.4,0v72.438a2.08,2.08,0,0,0,2.077,2.077H174.023a2.08,2.08,0,0,0,2.077-2.077V33.385a2.2,2.2,0,0,1,4.4,0v72.438a6.487,6.487,0,0,1-6.48,6.479Z" transform="translate(-58.993 -31.184)"/>
        </g>
      </g>
      <g id="Group_43" data-name="Group 43" transform="translate(40.932 10.565)">
        <g id="Group_42" data-name="Group 42">
          <path id="Path_118" data-name="Path 118" d="M178.3,33.292H61.193a2.2,2.2,0,0,1-2.2-2.2V18.479A6.486,6.486,0,0,1,65.471,12H174.022a6.486,6.486,0,0,1,6.479,6.479V31.09a2.2,2.2,0,0,1-2.2,2.2ZM63.394,28.89H176.1V18.479a2.08,2.08,0,0,0-2.077-2.077H65.472a2.08,2.08,0,0,0-2.077,2.077V28.89Z" transform="translate(-58.992 -12)"/>
        </g>
      </g>
      <g id="Group_45" data-name="Group 45" transform="translate(59.028 11.391)">
        <g id="Group_44" data-name="Group 44">
          <path id="Path_119" data-name="Path 119" d="M81.747,32.637a2.2,2.2,0,0,1-2.2-2.2v-15.3a2.2,2.2,0,1,1,4.4,0v15.3A2.2,2.2,0,0,1,81.747,32.637Z" transform="translate(-79.546 -12.938)"/>
        </g>
      </g>
      <g id="Group_47" data-name="Group 47" transform="translate(0 161.554)">
        <g id="Group_46" data-name="Group 46">
          <path id="Path_120" data-name="Path 120" d="M67.088,247.329H18.66a6.167,6.167,0,0,1-6.16-6.16V185.7a2.2,2.2,0,0,1,4.4,0v55.468a1.76,1.76,0,0,0,1.758,1.758H67.089a1.76,1.76,0,0,0,1.758-1.758V185.7a2.2,2.2,0,0,1,4.4,0v55.468a6.169,6.169,0,0,1-6.161,6.16Z" transform="translate(-12.5 -183.5)"/>
        </g>
      </g>
      <g id="Group_49" data-name="Group 49" transform="translate(22.279 172)">
        <g id="Group_48" data-name="Group 48">
          <path id="Path_121" data-name="Path 121" d="M63.581,199.767H40.007a2.2,2.2,0,1,1,0-4.4H63.581a2.2,2.2,0,1,1,0,4.4Z" transform="translate(-37.806 -195.365)"/>
        </g>
      </g>
      <g id="Group_51" data-name="Group 51" transform="translate(10.493 172)">
        <g id="Group_50" data-name="Group 50">
          <path id="Path_122" data-name="Path 122" d="M30.507,199.767H26.619a2.2,2.2,0,1,1,0-4.4h3.888a2.2,2.2,0,1,1,0,4.4Z" transform="translate(-24.418 -195.365)"/>
        </g>
      </g>
      <g id="Group_53" data-name="Group 53" transform="translate(33.099 181.894)">
        <g id="Group_52" data-name="Group 52">
          <path id="Path_123" data-name="Path 123" d="M65.05,211.005H52.3a2.2,2.2,0,1,1,0-4.4H65.05a2.2,2.2,0,1,1,0,4.4Z" transform="translate(-50.095 -206.603)"/>
        </g>
      </g>
      <g id="Group_55" data-name="Group 55" transform="translate(10.493 181.894)">
        <g id="Group_54" data-name="Group 54">
          <path id="Path_124" data-name="Path 124" d="M41.2,211.005H26.619a2.2,2.2,0,1,1,0-4.4H41.2a2.2,2.2,0,1,1,0,4.4Z" transform="translate(-24.418 -206.603)"/>
        </g>
      </g>
      <g id="Group_57" data-name="Group 57" transform="translate(44.027 191.789)">
        <g id="Group_56" data-name="Group 56">
          <path id="Path_125" data-name="Path 125" d="M66.535,222.244H64.709a2.2,2.2,0,1,1,0-4.4h1.826a2.2,2.2,0,1,1,0,4.4Z" transform="translate(-62.508 -217.842)"/>
        </g>
      </g>
      <g id="Group_59" data-name="Group 59" transform="translate(10.493 191.789)">
        <g id="Group_58" data-name="Group 58">
          <path id="Path_126" data-name="Path 126" d="M52.215,222.244h-25.6a2.2,2.2,0,1,1,0-4.4h25.6a2.2,2.2,0,1,1,0,4.4Z" transform="translate(-24.418 -217.842)"/>
        </g>
      </g>
      <g id="Group_61" data-name="Group 61" transform="translate(26.364 201.683)">
        <g id="Group_60" data-name="Group 60">
          <path id="Path_127" data-name="Path 127" d="M64.136,233.482H44.646a2.2,2.2,0,1,1,0-4.4H64.136a2.2,2.2,0,0,1,0,4.4Z" transform="translate(-42.445 -229.08)"/>
        </g>
      </g>
      <g id="Group_63" data-name="Group 63" transform="translate(10.493 201.683)">
        <g id="Group_62" data-name="Group 62">
          <path id="Path_128" data-name="Path 128" d="M34.457,233.482H26.619a2.2,2.2,0,1,1,0-4.4h7.838a2.2,2.2,0,1,1,0,4.4Z" transform="translate(-24.418 -229.08)"/>
        </g>
      </g>
      <g id="Group_65" data-name="Group 65" transform="translate(33.099 211.577)">
        <g id="Group_64" data-name="Group 64">
          <path id="Path_129" data-name="Path 129" d="M65.05,244.72H52.3a2.2,2.2,0,1,1,0-4.4H65.05a2.2,2.2,0,1,1,0,4.4Z" transform="translate(-50.095 -240.318)"/>
        </g>
      </g>
      <g id="Group_67" data-name="Group 67" transform="translate(10.493 211.577)">
        <g id="Group_66" data-name="Group 66">
          <path id="Path_130" data-name="Path 130" d="M41.2,244.72H26.619a2.2,2.2,0,1,1,0-4.4H41.2a2.2,2.2,0,1,1,0,4.4Z" transform="translate(-24.418 -240.318)"/>
        </g>
      </g>
      <g id="Group_69" data-name="Group 69" transform="translate(71.313 161.554)">
        <g id="Group_68" data-name="Group 68">
          <path id="Path_131" data-name="Path 131" d="M148.088,247.329H99.66a6.167,6.167,0,0,1-6.16-6.16V185.7a2.2,2.2,0,0,1,4.4,0v55.468a1.76,1.76,0,0,0,1.758,1.758h48.427a1.76,1.76,0,0,0,1.758-1.758V185.7a2.2,2.2,0,1,1,4.4,0v55.468a6.167,6.167,0,0,1-6.16,6.16Z" transform="translate(-93.5 -183.5)"/>
        </g>
      </g>
      <g id="Group_71" data-name="Group 71" transform="translate(93.592 172)">
        <g id="Group_70" data-name="Group 70">
          <path id="Path_132" data-name="Path 132" d="M144.581,199.767H121.007a2.2,2.2,0,0,1,0-4.4h23.574a2.2,2.2,0,1,1,0,4.4Z" transform="translate(-118.806 -195.365)"/>
        </g>
      </g>
      <g id="Group_73" data-name="Group 73" transform="translate(81.805 172)">
        <g id="Group_72" data-name="Group 72">
          <path id="Path_133" data-name="Path 133" d="M111.507,199.767h-3.888a2.2,2.2,0,0,1,0-4.4h3.888a2.2,2.2,0,1,1,0,4.4Z" transform="translate(-105.418 -195.365)"/>
        </g>
      </g>
      <g id="Group_75" data-name="Group 75" transform="translate(104.411 181.894)">
        <g id="Group_74" data-name="Group 74">
          <path id="Path_134" data-name="Path 134" d="M146.05,211.005H133.3a2.2,2.2,0,1,1,0-4.4H146.05a2.2,2.2,0,1,1,0,4.4Z" transform="translate(-131.095 -206.603)"/>
        </g>
      </g>
      <g id="Group_77" data-name="Group 77" transform="translate(81.805 181.894)">
        <g id="Group_76" data-name="Group 76">
          <path id="Path_135" data-name="Path 135" d="M122.2,211.005h-14.58a2.2,2.2,0,0,1,0-4.4H122.2a2.2,2.2,0,1,1,0,4.4Z" transform="translate(-105.418 -206.603)"/>
        </g>
      </g>
      <g id="Group_79" data-name="Group 79" transform="translate(115.34 191.789)">
        <g id="Group_78" data-name="Group 78">
          <path id="Path_136" data-name="Path 136" d="M147.535,222.244h-1.826a2.2,2.2,0,1,1,0-4.4h1.826a2.2,2.2,0,1,1,0,4.4Z" transform="translate(-143.508 -217.842)"/>
        </g>
      </g>
      <g id="Group_81" data-name="Group 81" transform="translate(81.805 191.789)">
        <g id="Group_80" data-name="Group 80">
          <path id="Path_137" data-name="Path 137" d="M133.214,222.244h-25.6a2.2,2.2,0,1,1,0-4.4h25.6a2.2,2.2,0,1,1,0,4.4Z" transform="translate(-105.418 -217.842)"/>
        </g>
      </g>
      <g id="Group_83" data-name="Group 83" transform="translate(97.676 201.683)">
        <g id="Group_82" data-name="Group 82">
          <path id="Path_138" data-name="Path 138" d="M145.135,233.482H125.646a2.2,2.2,0,1,1,0-4.4h19.489a2.2,2.2,0,0,1,0,4.4Z" transform="translate(-123.445 -229.08)"/>
        </g>
      </g>
      <g id="Group_85" data-name="Group 85" transform="translate(81.805 201.683)">
        <g id="Group_84" data-name="Group 84">
          <path id="Path_139" data-name="Path 139" d="M115.457,233.482h-7.838a2.2,2.2,0,1,1,0-4.4h7.838a2.2,2.2,0,1,1,0,4.4Z" transform="translate(-105.418 -229.08)"/>
        </g>
      </g>
      <g id="Group_87" data-name="Group 87" transform="translate(104.411 211.577)">
        <g id="Group_86" data-name="Group 86">
          <path id="Path_140" data-name="Path 140" d="M146.05,244.72H133.3a2.2,2.2,0,0,1,0-4.4H146.05a2.2,2.2,0,0,1,0,4.4Z" transform="translate(-131.095 -240.318)"/>
        </g>
      </g>
      <g id="Group_89" data-name="Group 89" transform="translate(81.804 211.577)">
        <g id="Group_88" data-name="Group 88">
          <path id="Path_141" data-name="Path 141" d="M122.2,244.72H107.618a2.2,2.2,0,0,1,0-4.4H122.2a2.2,2.2,0,1,1,0,4.4Z" transform="translate(-105.417 -240.318)"/>
        </g>
      </g>
      <g id="Group_91" data-name="Group 91" transform="translate(142.625 161.554)">
        <g id="Group_90" data-name="Group 90">
          <path id="Path_142" data-name="Path 142" d="M229.088,247.329H180.66a6.167,6.167,0,0,1-6.16-6.16V185.7a2.2,2.2,0,1,1,4.4,0v55.468a1.76,1.76,0,0,0,1.758,1.758h48.427a1.76,1.76,0,0,0,1.758-1.758V185.7a2.2,2.2,0,1,1,4.4,0v55.468a6.167,6.167,0,0,1-6.16,6.16Z" transform="translate(-174.5 -183.5)"/>
        </g>
      </g>
      <g id="Group_93" data-name="Group 93" transform="translate(164.905 172)">
        <g id="Group_92" data-name="Group 92">
          <path id="Path_143" data-name="Path 143" d="M225.581,199.767H202.007a2.2,2.2,0,0,1,0-4.4h23.574a2.2,2.2,0,0,1,0,4.4Z" transform="translate(-199.806 -195.365)"/>
        </g>
      </g>
      <g id="Group_95" data-name="Group 95" transform="translate(153.118 172)">
        <g id="Group_94" data-name="Group 94">
          <path id="Path_144" data-name="Path 144" d="M192.507,199.767h-3.888a2.2,2.2,0,0,1,0-4.4h3.888a2.2,2.2,0,1,1,0,4.4Z" transform="translate(-186.418 -195.365)"/>
        </g>
      </g>
      <g id="Group_97" data-name="Group 97" transform="translate(175.724 181.894)">
        <g id="Group_96" data-name="Group 96">
          <path id="Path_145" data-name="Path 145" d="M227.05,211.005H214.3a2.2,2.2,0,0,1,0-4.4H227.05a2.2,2.2,0,1,1,0,4.4Z" transform="translate(-212.095 -206.603)"/>
        </g>
      </g>
      <g id="Group_99" data-name="Group 99" transform="translate(153.117 181.894)">
        <g id="Group_98" data-name="Group 98">
          <path id="Path_146" data-name="Path 146" d="M203.2,211.005H188.618a2.2,2.2,0,1,1,0-4.4H203.2a2.2,2.2,0,1,1,0,4.4Z" transform="translate(-186.417 -206.603)"/>
        </g>
      </g>
      <g id="Group_101" data-name="Group 101" transform="translate(186.653 191.789)">
        <g id="Group_100" data-name="Group 100" transform="translate(0)">
          <path id="Path_147" data-name="Path 147" d="M228.535,222.244h-1.826a2.2,2.2,0,1,1,0-4.4h1.826a2.2,2.2,0,0,1,0,4.4Z" transform="translate(-224.508 -217.842)"/>
        </g>
      </g>
      <g id="Group_103" data-name="Group 103" transform="translate(153.118 191.789)">
        <g id="Group_102" data-name="Group 102">
          <path id="Path_148" data-name="Path 148" d="M214.214,222.244h-25.6a2.2,2.2,0,1,1,0-4.4h25.6a2.2,2.2,0,1,1,0,4.4Z" transform="translate(-186.418 -217.842)"/>
        </g>
      </g>
      <g id="Group_105" data-name="Group 105" transform="translate(168.989 201.683)">
        <g id="Group_104" data-name="Group 104" transform="translate(0)">
          <path id="Path_149" data-name="Path 149" d="M226.135,233.482H206.646a2.2,2.2,0,1,1,0-4.4h19.489a2.2,2.2,0,0,1,0,4.4Z" transform="translate(-204.445 -229.08)"/>
        </g>
      </g>
      <g id="Group_107" data-name="Group 107" transform="translate(153.118 201.683)">
        <g id="Group_106" data-name="Group 106">
          <path id="Path_150" data-name="Path 150" d="M196.457,233.482h-7.838a2.2,2.2,0,0,1,0-4.4h7.838a2.2,2.2,0,0,1,0,4.4Z" transform="translate(-186.418 -229.08)"/>
        </g>
      </g>
      <g id="Group_109" data-name="Group 109" transform="translate(175.724 211.577)">
        <g id="Group_108" data-name="Group 108">
          <path id="Path_151" data-name="Path 151" d="M227.05,244.72H214.3a2.2,2.2,0,0,1,0-4.4H227.05a2.2,2.2,0,0,1,0,4.4Z" transform="translate(-212.095 -240.318)"/>
        </g>
      </g>
      <g id="Group_111" data-name="Group 111" transform="translate(153.117 211.577)">
        <g id="Group_110" data-name="Group 110">
          <path id="Path_152" data-name="Path 152" d="M203.2,244.72H188.618a2.2,2.2,0,0,1,0-4.4H203.2a2.2,2.2,0,1,1,0,4.4Z" transform="translate(-186.417 -240.318)"/>
        </g>
      </g>
      <g id="Group_113" data-name="Group 113" transform="translate(28.613 105.05)">
        <g id="Group_112" data-name="Group 112">
          <path id="Path_153" data-name="Path 153" d="M47.2,169.221a2.2,2.2,0,0,1-2.2-2.2v-18.1a7,7,0,0,1,6.988-6.989H71.907a2.59,2.59,0,0,0,2.587-2.587v-17.82a2.2,2.2,0,0,1,4.4,0v17.82a7,7,0,0,1-6.989,6.989H51.988a2.589,2.589,0,0,0-2.586,2.587v18.1a2.2,2.2,0,0,1-2.2,2.2Z" transform="translate(-45 -119.32)"/>
        </g>
      </g>
      <g id="Group_115" data-name="Group 115" transform="translate(140.865 105.05)">
        <g id="Group_114" data-name="Group 114">
          <path id="Path_154" data-name="Path 154" d="M204.195,169.221a2.2,2.2,0,0,1-2.2-2.2v-18.1a2.589,2.589,0,0,0-2.587-2.587H179.488a7,7,0,0,1-6.988-6.989v-17.82a2.2,2.2,0,1,1,4.4,0v17.82a2.589,2.589,0,0,0,2.586,2.587h19.919a7,7,0,0,1,6.989,6.989v18.1A2.2,2.2,0,0,1,204.195,169.221Z" transform="translate(-172.5 -119.32)"/>
        </g>
      </g>
      <g id="Group_117" data-name="Group 117" transform="translate(99.486 105.051)">
        <g id="Group_116" data-name="Group 116">
          <path id="Path_155" data-name="Path 155" d="M127.7,169.221a2.2,2.2,0,0,1-2.2-2.2v-45.5a2.2,2.2,0,0,1,4.4,0v45.5A2.2,2.2,0,0,1,127.7,169.221Z" transform="translate(-125.5 -119.321)"/>
        </g>
      </g>
      <g id="Group_119" data-name="Group 119" transform="translate(111.606 49.192)">
        <g id="Group_118" data-name="Group 118">
          <path id="Path_156" data-name="Path 156" d="M163.692,70.167l-17.94-13.48a4.052,4.052,0,1,0-4.868,6.479l13.63,10.241-13.63,10.24a4.052,4.052,0,0,0,4.868,6.479l17.941-13.481a4.051,4.051,0,0,0,0-6.478Z" transform="translate(-139.267 -55.874)" fill="#70d6f9"/>
        </g>
      </g>
      <g id="Group_121" data-name="Group 121" transform="translate(65.724 49.195)">
        <g id="Group_120" data-name="Group 120">
          <path id="Path_157" data-name="Path 157" d="M111.577,83.648l-13.63-10.24,13.63-10.241a4.051,4.051,0,0,0-4.867-6.478L88.769,70.169a4.052,4.052,0,0,0,0,6.478l17.94,13.48a4.052,4.052,0,0,0,4.868-6.479Z" transform="translate(-87.152 -55.878)" fill="#70d6f9"/>
        </g>
      </g>
      <g id="Group_123" data-name="Group 123" transform="translate(91.055 44.552)">
        <g id="Group_122" data-name="Group 122">
          <path id="Path_158" data-name="Path 158" d="M134.164,50.837a4.05,4.05,0,0,0-5.171,2.466l-12.835,36.24a4.051,4.051,0,0,0,7.638,2.705l12.835-36.24a4.049,4.049,0,0,0-2.466-5.171Z" transform="translate(-115.924 -50.604)" fill="#70d6f9"/>
        </g>
      </g>
      <g id="Group_125" data-name="Group 125" transform="translate(109.403 46.994)">
        <g id="Group_124" data-name="Group 124">
          <path id="Path_159" data-name="Path 159" d="M143.026,92.839a6.252,6.252,0,0,1-3.765-11.25l11.288-8.481-11.288-8.481a6.253,6.253,0,0,1,7.512-10l17.94,13.48a6.252,6.252,0,0,1,0,10L146.773,91.587A6.22,6.22,0,0,1,143.026,92.839Zm-.005-35.06a1.855,1.855,0,0,0-1.483.738,1.855,1.855,0,0,0,.369,2.591l13.63,10.241a2.2,2.2,0,0,1,0,3.52l-13.63,10.241a1.851,1.851,0,0,0,2.222,2.96L162.07,74.588a1.85,1.85,0,0,0,0-2.959l-17.94-13.48a1.835,1.835,0,0,0-1.108-.371Z" transform="translate(-136.765 -53.378)"/>
        </g>
      </g>
      <g id="Group_127" data-name="Group 127" transform="translate(63.523 46.993)">
        <g id="Group_126" data-name="Group 126">
          <path id="Path_160" data-name="Path 160" d="M108.832,92.843a6.209,6.209,0,0,1-3.743-1.255L87.148,78.107a6.253,6.253,0,0,1,0-10l17.94-13.48a6.253,6.253,0,1,1,7.512,10l-11.288,8.481L112.6,81.59a6.253,6.253,0,0,1-2.877,11.19A6.345,6.345,0,0,1,108.832,92.843Zm.006-35.064a1.834,1.834,0,0,0-1.106.37l-17.94,13.48a1.851,1.851,0,0,0,0,2.959l17.94,13.481a1.851,1.851,0,1,0,2.223-2.959L96.327,74.869a2.2,2.2,0,0,1,0-3.52l13.629-10.241A1.848,1.848,0,0,0,109.1,57.8a1.939,1.939,0,0,0-.266-.019Z" transform="translate(-84.652 -53.377)"/>
        </g>
      </g>
      <g id="Group_129" data-name="Group 129" transform="translate(88.855 42.352)">
        <g id="Group_128" data-name="Group 128">
          <path id="Path_161" data-name="Path 161" d="M119.671,96.851a6.253,6.253,0,0,1-5.888-8.34L126.619,52.27a6.26,6.26,0,0,1,7.98-3.807h0a6.261,6.261,0,0,1,3.806,7.981L125.57,92.685A6.261,6.261,0,0,1,119.671,96.851Zm12.842-44.344a1.854,1.854,0,0,0-1.746,1.232l-12.835,36.24a1.851,1.851,0,0,0,3.488,1.238l12.836-36.241a1.849,1.849,0,0,0-1.743-2.469Z" transform="translate(-113.425 -48.105)"/>
        </g>
      </g>
      <g id="Group_131" data-name="Group 131" transform="translate(0 151.429)">
        <g id="Group_130" data-name="Group 130">
          <path id="Path_162" data-name="Path 162" d="M71.047,186.527H14.7a2.2,2.2,0,0,1-2.2-2.2V178.16A6.167,6.167,0,0,1,18.66,172H67.089a6.167,6.167,0,0,1,6.16,6.16v6.165A2.2,2.2,0,0,1,71.047,186.527Zm-54.145-4.4H68.846V178.16a1.76,1.76,0,0,0-1.758-1.758H18.66A1.76,1.76,0,0,0,16.9,178.16Z" transform="translate(-12.5 -172)"/>
        </g>
      </g>
      <g id="Group_133" data-name="Group 133" transform="translate(71.313 151.429)">
        <g id="Group_132" data-name="Group 132">
          <path id="Path_163" data-name="Path 163" d="M152.047,186.527H95.7a2.2,2.2,0,0,1-2.2-2.2V178.16A6.167,6.167,0,0,1,99.66,172h48.427a6.167,6.167,0,0,1,6.16,6.16v6.165A2.2,2.2,0,0,1,152.047,186.527Zm-54.145-4.4h51.944V178.16a1.76,1.76,0,0,0-1.758-1.758H99.66A1.76,1.76,0,0,0,97.9,178.16Z" transform="translate(-93.5 -172)"/>
        </g>
      </g>
      <g id="Group_135" data-name="Group 135" transform="translate(142.625 151.429)">
        <g id="Group_134" data-name="Group 134">
          <path id="Path_164" data-name="Path 164" d="M233.047,186.527H176.7a2.2,2.2,0,0,1-2.2-2.2V178.16a6.167,6.167,0,0,1,6.16-6.16h48.427a6.167,6.167,0,0,1,6.16,6.16v6.165a2.2,2.2,0,0,1-2.2,2.2Zm-54.145-4.4h51.944V178.16a1.76,1.76,0,0,0-1.758-1.758H180.66a1.76,1.76,0,0,0-1.758,1.758Z" transform="translate(-174.5 -172)"/>
        </g>
      </g>
    </g>
  </g>
</svg>
