<svg id="Layer_1" data-name="Layer 1" xmlns="http://www.w3.org/2000/svg" xmlns:xlink="http://www.w3.org/1999/xlink" viewBox="0 0 70.68 73.6"><defs><style>.cls-1{fill:none;}.cls-2{clip-path:url(#clip-path);}.cls-3{clip-path:url(#clip-path-2);}.cls-4{fill:#2e2e2c;}.cls-5{clip-path:url(#clip-path-3);}.cls-6{clip-path:url(#clip-path-5);}.cls-7{clip-path:url(#clip-path-7);}.cls-8{clip-path:url(#clip-path-9);}.cls-9{clip-path:url(#clip-path-11);}.cls-10{isolation:isolate;}.cls-11{clip-path:url(#clip-path-13);}.cls-12{clip-path:url(#clip-path-14);}.cls-13{clip-path:url(#clip-path-15);}.cls-14{clip-path:url(#clip-path-17);}.cls-15{clip-path:url(#clip-path-19);}.cls-16{clip-path:url(#clip-path-21);}.cls-17{clip-path:url(#clip-path-23);}.cls-18{clip-path:url(#clip-path-25);}.cls-19{clip-path:url(#clip-path-27);}.cls-20{clip-path:url(#clip-path-29);}.cls-21{clip-path:url(#clip-path-31);}</style><clipPath id="clip-path" transform="translate(0.34 0.31)"><path id="SVGID" class="cls-1" d="M46.17,33.47a1.55,1.55,0,0,1-1.29-.55c-.06-.25-.12-3.91-.15-7.53,0-3.78,0-7.54.18-7.57a56.15,56.15,0,0,1,4.46-6,18.07,18.07,0,0,0-9.77,5.41,5.66,5.66,0,0,0-3.11-.68,4.35,4.35,0,0,1,1.94,3.38V32.64s-2.12,1.88-3.75,1.88a2.34,2.34,0,0,1-1.91-1,3,3,0,0,1-.31-.55V17.3a1.31,1.31,0,0,1-.76.28,1.09,1.09,0,0,1-1-.68,4.33,4.33,0,0,1-.31-1.81c0-2.89,3.29-4.83,3.29-4.83-4.15,1.11-8,3.26-13.15,9.16s-4.15,10.76-4.15,10.76a24.43,24.43,0,0,1,4.79-6.91C22.84,21.61,24,21.05,24.87,21a1.27,1.27,0,0,1,1.35,1.29v12a1.28,1.28,0,0,1-1.47,1.42,3.48,3.48,0,0,1-1.14-.22c3.5,5.07,11.87,5.81,11.87,5.81l3.69-3.93.09.06,3.38,2.86c6.15-3.66,9.13-10.46,9.13-10.46-2.8,3-4.55,3.66-5.6,3.66"/></clipPath><clipPath id="clip-path-2" transform="translate(0.34 0.31)"><rect id="SVGID-2" data-name="SVGID" class="cls-1" x="-14.94" y="-29.46" width="216.92" height="144.61"/></clipPath><clipPath id="clip-path-3" transform="translate(0.34 0.31)"><path id="SVGID-3" data-name="SVGID" class="cls-1" d="M35,1.19A24.09,24.09,0,0,1,52.26,8.42a24.8,24.8,0,0,1,0,34.86,24.28,24.28,0,0,1-34.55,0,24.77,24.77,0,0,1,0-34.86A24,24,0,0,1,35,1.19M35,.06A25.76,25.76,0,1,0,60.5,25.82,25.65,25.65,0,0,0,35,.06"/></clipPath><clipPath id="clip-path-5" transform="translate(0.34 0.31)"><polygon id="SVGID-5" data-name="SVGID" class="cls-1" points="22.07 72.85 16.6 72.85 16.6 67.84 21.98 67.84 21.98 68.95 18.08 68.95 18.08 69.81 21.77 69.81 21.77 70.85 18.08 70.85 18.08 71.72 22.07 71.72 22.07 72.85"/></clipPath><clipPath id="clip-path-7" transform="translate(0.34 0.31)"><polygon id="SVGID-7" data-name="SVGID" class="cls-1" points="29.48 72.85 27.3 72.85 24.38 69.1 24.35 69.1 24.35 72.85 22.9 72.85 22.9 67.84 25.15 67.84 28.01 71.62 28.04 71.62 28.04 67.84 29.48 67.84 29.48 72.85"/></clipPath><clipPath id="clip-path-9" transform="translate(0.34 0.31)"><path id="SVGID-9" data-name="SVGID" class="cls-1" d="M33.75,72.91c-.46,0-.86,0-1.19,0a5.74,5.74,0,0,1-.86-.12,1.35,1.35,0,0,1-.59-.28,1,1,0,0,1-.34-.46,2,2,0,0,1-.15-.67,8.74,8.74,0,0,1,0-.93V70.3a8.17,8.17,0,0,1,0-.92,3.3,3.3,0,0,1,.15-.68,1.07,1.07,0,0,1,.34-.43A1.47,1.47,0,0,1,31.7,68a4.61,4.61,0,0,1,.86-.13c.33,0,.73,0,1.19,0H34a10,10,0,0,1,1,0l.74.09a1.58,1.58,0,0,1,.53.19.81.81,0,0,1,.3.28.88.88,0,0,1,.16.43,3.39,3.39,0,0,1,0,.58v.18H35.32v-.06a.6.6,0,0,0-.06-.27.26.26,0,0,0-.21-.19.86.86,0,0,0-.43-.09,5.18,5.18,0,0,0-.74,0h-.83a2.11,2.11,0,0,0-.49.06,1.43,1.43,0,0,0-.31.12l-.19.25a1.14,1.14,0,0,0-.06.37c0,.15,0,.34,0,.55v.09A2.65,2.65,0,0,0,32,71a1.24,1.24,0,0,0,.06.37.49.49,0,0,0,.19.24.69.69,0,0,0,.31.12,1.64,1.64,0,0,0,.49.07h1.41c.16,0,.31,0,.4,0s.22,0,.28-.07a.3.3,0,0,0,.15-.12.32.32,0,0,0,.06-.18c0-.07,0-.16,0-.22V71h-1.9V70H36.8v1.11a4,4,0,0,1-.06.65,1.12,1.12,0,0,1-.19.46,1.22,1.22,0,0,1-.34.34,1.6,1.6,0,0,1-.52.21,4.47,4.47,0,0,1-.77.12c-.3,0-.64,0-1,0h-.13Z"/></clipPath><clipPath id="clip-path-11" transform="translate(0.34 0.31)"><rect id="SVGID-11" data-name="SVGID" class="cls-1" y="56.31" width="70" height="16.63"/></clipPath><clipPath id="clip-path-13" transform="translate(0.34 0.31)"><rect id="SVGID-13" data-name="SVGID" class="cls-1" x="40.43" y="67.87" width="13.16" height="5.07"/></clipPath><clipPath id="clip-path-14" transform="translate(0.34 0.31)"><polygon id="SVGID-14" data-name="SVGID" class="cls-1" points="46.97 72.85 44.79 72.85 41.9 69.13 41.87 69.13 41.87 72.85 40.46 72.85 40.46 67.9 42.67 67.9 45.53 71.62 45.56 71.62 45.56 67.9 46.97 67.9 46.97 72.85"/></clipPath><clipPath id="clip-path-15" transform="translate(0.34 0.31)"><rect id="SVGID-15" data-name="SVGID" class="cls-1" y="56.28" width="70" height="16.63"/></clipPath><clipPath id="clip-path-17" transform="translate(0.34 0.31)"><polygon id="SVGID-17" data-name="SVGID" class="cls-1" points="53.55 72.85 48.14 72.85 48.14 67.9 53.46 67.9 53.46 68.98 49.59 68.98 49.59 69.84 53.28 69.84 53.28 70.89 49.59 70.89 49.59 71.75 53.55 71.75 53.55 72.85"/></clipPath><clipPath id="clip-path-19" transform="translate(0.34 0.31)"><path id="SVGID-19" data-name="SVGID" class="cls-1" d="M5.26,65.17c-.71,0-1.32,0-1.88-.06A9.79,9.79,0,0,1,2,64.92a2.81,2.81,0,0,1-.95-.37A2.16,2.16,0,0,1,.43,64a2.44,2.44,0,0,1-.31-.86A6.51,6.51,0,0,1,0,62V56.31H2.61v4.83a5.87,5.87,0,0,0,0,.77,2.47,2.47,0,0,0,.13.55.8.8,0,0,0,.27.37,1.81,1.81,0,0,0,.5.22,2.41,2.41,0,0,0,.73.09c.28,0,.65,0,1.05,0h.21c.4,0,.74,0,1,0l.74-.09a2.24,2.24,0,0,0,.49-.22.89.89,0,0,0,.28-.37,2.5,2.5,0,0,0,.12-.55,5.87,5.87,0,0,0,0-.77V56.31h2.58V62a6.51,6.51,0,0,1-.09,1.14,2.26,2.26,0,0,1-.31.86,1.62,1.62,0,0,1-.61.58,3.26,3.26,0,0,1-1,.37,9.79,9.79,0,0,1-1.38.19c-.55,0-1.17.06-1.87.06Z"/></clipPath><clipPath id="clip-path-21" transform="translate(0.34 0.31)"><polygon id="SVGID-21" data-name="SVGID" class="cls-1" points="24.04 65.08 20.2 65.08 15.13 58.53 15.06 58.53 15.06 65.08 12.54 65.08 12.54 56.31 16.45 56.31 21.49 62.86 21.52 62.86 21.52 56.31 24.04 56.31 24.04 65.08"/></clipPath><clipPath id="clip-path-23" transform="translate(0.34 0.31)"><path id="SVGID-23" data-name="SVGID" class="cls-1" d="M36.21,65.07H33.66v-.7a4.94,4.94,0,0,0,0-.68,1.7,1.7,0,0,0-.12-.46.65.65,0,0,0-.28-.31,1.44,1.44,0,0,0-.49-.18L32,62.65c-.27,0-.64,0-1,0H28.38V65H25.82V56.28h6.83a8.61,8.61,0,0,1,1.75.13,2.65,2.65,0,0,1,1.08.43,1.53,1.53,0,0,1,.55.83,4.88,4.88,0,0,1,.15,1.26v.3a4,4,0,0,1-.09.9,2,2,0,0,1-.28.67,1.44,1.44,0,0,1-.46.46,1.94,1.94,0,0,1-.7.28v.06a7.23,7.23,0,0,1,.77.19,1.39,1.39,0,0,1,.46.33,1.27,1.27,0,0,1,.21.62,7.44,7.44,0,0,1,.06.95v1.38ZM31.6,60.74c.43,0,.8,0,1.08,0a1.42,1.42,0,0,0,.61-.18.85.85,0,0,0,.28-.37,3.33,3.33,0,0,0,.06-.62v-.15a3.33,3.33,0,0,0-.06-.62.46.46,0,0,0-.28-.34,1.46,1.46,0,0,0-.61-.15c-.28,0-.62,0-1.05,0H28.41v2.49Z"/></clipPath><clipPath id="clip-path-25" transform="translate(0.34 0.31)"><polygon id="SVGID-25" data-name="SVGID" class="cls-1" points="47.44 65.08 37.87 65.08 37.87 56.31 47.28 56.31 47.28 58.25 40.46 58.25 40.46 59.73 46.91 59.73 46.91 61.57 40.46 61.57 40.46 63.08 47.44 63.08 47.44 65.08"/></clipPath><clipPath id="clip-path-27" transform="translate(0.34 0.31)"><path id="SVGID-27" data-name="SVGID" class="cls-1" d="M60.59,65.07H57.8L57,63.51H51.52l-.8,1.56H48l4.7-8.76h3.17Zm-4.52-3.41-1.78-3.53h-.06l-1.78,3.53Z"/></clipPath><clipPath id="clip-path-29" transform="translate(0.34 0.31)"><polygon id="SVGID-29" data-name="SVGID" class="cls-1" points="70 65.08 61.55 65.08 61.55 56.31 64.13 56.31 64.13 63.05 70 63.05 70 65.08"/></clipPath><clipPath id="clip-path-31" transform="translate(0.34 0.31)"><rect id="SVGID-31" data-name="SVGID" class="cls-1" x="37.87" y="67.9" width="1.48" height="4.98"/></clipPath></defs><g class="cls-2"><g class="cls-3"><rect class="cls-4" x="16.29" y="10.21" width="36.15" height="31.79"/></g></g><g class="cls-5"><g class="cls-3"><rect class="cls-4" x="9.38" width="51.83" height="52.26"/></g></g><g class="cls-6"><g class="cls-3"><rect class="cls-4" x="16.57" y="67.82" width="6.18" height="5.75"/></g></g><g class="cls-7"><g class="cls-3"><rect class="cls-4" x="22.87" y="67.82" width="7.32" height="5.75"/></g></g><g class="cls-8"><g class="cls-3"><rect class="cls-4" x="30.56" y="67.79" width="7.01" height="5.81"/></g></g><g class="cls-9"><g class="cls-3"><g class="cls-10"><g class="cls-11"><g class="cls-12"><g class="cls-13"><rect class="cls-4" x="40.43" y="67.85" width="7.26" height="5.69"/></g></g></g><g class="cls-11"><g class="cls-14"><g class="cls-13"><rect class="cls-4" x="48.11" y="67.85" width="6.15" height="5.69"/></g></g></g></g></g></g><g class="cls-15"><g class="cls-3"><rect class="cls-4" y="56.26" width="11.5" height="9.59"/></g></g><g class="cls-16"><g class="cls-3"><rect class="cls-4" x="12.51" y="56.26" width="12.24" height="9.5"/></g></g><g class="cls-17"><g class="cls-3"><rect class="cls-4" x="25.82" y="56.26" width="11.1" height="9.5"/></g></g><g class="cls-18"><g class="cls-3"><rect class="cls-4" x="37.87" y="56.26" width="10.27" height="9.5"/></g></g><g class="cls-19"><g class="cls-3"><rect class="cls-4" x="47.96" y="56.26" width="13.34" height="9.5"/></g></g><g class="cls-20"><g class="cls-3"><rect class="cls-4" x="61.52" y="56.26" width="9.16" height="9.5"/></g></g><g class="cls-21"><g class="cls-3"><rect class="cls-4" x="37.84" y="67.85" width="2.18" height="5.69"/></g></g></svg>